<?xml version="1.0" encoding="UTF-8" standalone="no"?>
<!-- Created with Inkscape (http://www.inkscape.org/) -->

<svg
   xmlns:dc="http://purl.org/dc/elements/1.1/"
   xmlns:cc="http://creativecommons.org/ns#"
   xmlns:rdf="http://www.w3.org/1999/02/22-rdf-syntax-ns#"
   xmlns:svg="http://www.w3.org/2000/svg"
   xmlns="http://www.w3.org/2000/svg"
   xmlns:xlink="http://www.w3.org/1999/xlink"
   xmlns:sodipodi="http://sodipodi.sourceforge.net/DTD/sodipodi-0.dtd"
   xmlns:inkscape="http://www.inkscape.org/namespaces/inkscape"
   width="477.7457mm"
   height="207.55669mm"
   viewBox="0 0 477.74569 207.55668"
   version="1.1"
   id="svg8"
   sodipodi:docname="security.svg"
   inkscape:version="0.92.2 5c3e80d, 2017-08-06"
   inkscape:export-filename="/home/viniml/Imagens/Freelas/security.svg.png"
   inkscape:export-xdpi="96"
   inkscape:export-ydpi="96">
  <defs
     id="defs2">
    <linearGradient
       inkscape:collect="always"
       id="linearGradient4580">
      <stop
         style="stop-color:#ffffff;stop-opacity:1;"
         offset="0"
         id="stop4576" />
      <stop
         style="stop-color:#ffffff;stop-opacity:0;"
         offset="1"
         id="stop4578" />
    </linearGradient>
    <linearGradient
       inkscape:collect="always"
       id="linearGradient3757">
      <stop
         style="stop-color:#ffffff;stop-opacity:0.17"
         offset="0"
         id="stop3753" />
      <stop
         style="stop-color:#ffffff;stop-opacity:0;"
         offset="1"
         id="stop3755" />
    </linearGradient>
    <linearGradient
       inkscape:collect="always"
       id="linearGradient3747">
      <stop
         style="stop-color:#f3f3bf;stop-opacity:1"
         offset="0"
         id="stop3743" />
      <stop
         style="stop-color:#bedec5;stop-opacity:1"
         offset="1"
         id="stop3745" />
    </linearGradient>
    <linearGradient
       inkscape:collect="always"
       id="linearGradient3739">
      <stop
         style="stop-color:#771713;stop-opacity:1"
         offset="0"
         id="stop3735" />
      <stop
         style="stop-color:#912519;stop-opacity:1"
         offset="1"
         id="stop3737" />
    </linearGradient>
    <linearGradient
       inkscape:collect="always"
       id="linearGradient3731">
      <stop
         style="stop-color:#eda749;stop-opacity:1"
         offset="0"
         id="stop3727" />
      <stop
         style="stop-color:#f1cb59;stop-opacity:1"
         offset="1"
         id="stop3729" />
    </linearGradient>
    <linearGradient
       inkscape:collect="always"
       xlink:href="#linearGradient3731"
       id="linearGradient3733"
       x1="101.02435"
       y1="98.269798"
       x2="193.4996"
       y2="96.398911"
       gradientUnits="userSpaceOnUse" />
    <linearGradient
       inkscape:collect="always"
       xlink:href="#linearGradient3739"
       id="linearGradient3741"
       x1="32.822807"
       y1="68.185562"
       x2="118.39687"
       y2="107.35696"
       gradientUnits="userSpaceOnUse" />
    <linearGradient
       inkscape:collect="always"
       xlink:href="#linearGradient3747"
       id="linearGradient3749"
       x1="-224.14246"
       y1="-56.94828"
       x2="-464.6731"
       y2="205.68057"
       gradientUnits="userSpaceOnUse" />
    <linearGradient
       inkscape:collect="always"
       xlink:href="#linearGradient3757"
       id="linearGradient3759"
       x1="191.87216"
       y1="59.578888"
       x2="160.87811"
       y2="101.53424"
       gradientUnits="userSpaceOnUse"
       gradientTransform="matrix(0.88589511,0,0,0.88589511,20.289533,11.019727)" />
    <linearGradient
       inkscape:collect="always"
       xlink:href="#linearGradient4580"
       id="linearGradient4582"
       x1="72.809654"
       y1="231.18007"
       x2="140.08942"
       y2="86.037224"
       gradientUnits="userSpaceOnUse"
       gradientTransform="matrix(0.92130697,0,0,0.92130697,7.0264921,12.007203)" />
  </defs>
  <sodipodi:namedview
     id="base"
     pagecolor="#ffffff"
     bordercolor="#666666"
     borderopacity="1.0"
     inkscape:pageopacity="0.0"
     inkscape:pageshadow="2"
     inkscape:zoom="0.35"
     inkscape:cx="987.31052"
     inkscape:cy="479.80168"
     inkscape:document-units="mm"
     inkscape:current-layer="layer1"
     showgrid="false"
     showguides="false"
     inkscape:guide-bbox="true"
     inkscape:window-width="1362"
     inkscape:window-height="717"
     inkscape:window-x="0"
     inkscape:window-y="0"
     inkscape:window-maximized="0"
     fit-margin-top="0"
     fit-margin-left="0"
     fit-margin-right="0"
     fit-margin-bottom="0" />
  <metadata
     id="metadata5">
    <rdf:RDF>
      <cc:Work
         rdf:about="">
        <dc:format>image/svg+xml</dc:format>
        <dc:type
           rdf:resource="http://purl.org/dc/dcmitype/StillImage" />
        <dc:title />
      </cc:Work>
    </rdf:RDF>
  </metadata>
  <g
     inkscape:label="Camada 1"
     inkscape:groupmode="layer"
     id="layer1"
     transform="translate(-24.050729,-42.522203)">
    <path
       style="fill:url(#linearGradient3741);fill-opacity:1;stroke:none;stroke-width:0.16640177px;stroke-linecap:butt;stroke-linejoin:miter;stroke-opacity:1"
       d="m 33.149681,68.750136 74.594589,-18.955225 76.81119,17.946678 c 0,0 29.42904,130.757131 -76.80875,174.180221 0,0 -92.365795,-28.5988 -74.923904,-173.736251"
       id="path1065"
       inkscape:connector-curvature="0"
       sodipodi:nodetypes="ccccc" />
    <path
       sodipodi:nodetypes="ccccc"
       inkscape:connector-curvature="0"
       id="path4574"
       d="m 37.567523,75.347183 68.724507,-17.463581 70.76668,16.534399 c 0,0 27.11318,120.467459 -70.76443,160.473459 0,0 -85.097245,-26.34828 -69.027909,-160.064426"
       style="fill:url(#linearGradient4582);fill-opacity:1;stroke:none;stroke-width:0.15330711px;stroke-linecap:butt;stroke-linejoin:miter;stroke-opacity:1;opacity:0.024" />
    <path
       sodipodi:type="inkscape:offset"
       inkscape:radius="2.6860249"
       inkscape:original="M -361.35742 -82.132812 C -361.35742 -82.132812 -384.12686 -74.5459 -411.08203 -66.960938 C -438.03718 -59.375976 -469.47012 -51.865234 -485.30664 -51.865234 L -488.10742 -51.865234 L -488.54492 -49.099609 C -488.54492 -49.099609 -497.28335 5.8852769 -485.83398 69.753906 C -474.38461 133.62255 -442.48703 206.92844 -361.34375 242.51758 C -280.20088 206.92861 -248.25831 133.62601 -236.76367 69.757812 C -225.26903 5.8896041 -233.95898 -49.097656 -233.95898 -49.097656 L -234.39648 -51.865234 L -237.19922 -51.865234 C -253.03572 -51.865234 -284.51725 -59.375857 -311.52148 -66.960938 C -338.52571 -74.546019 -361.3457 -82.132813 -361.3457 -82.132812 L -361.34961 -82.111328 L -361.35742 -82.132812 z M -361.34766 -75.248047 C -358.46351 -74.295249 -338.57836 -67.748779 -313.29297 -60.646484 C -287.39623 -53.372489 -258.26001 -46.230904 -240.12891 -45.556641 C -239.18691 -39.008581 -232.69397 10.125273 -243.2168 68.59375 C -254.36259 130.52363 -284.65237 200.29502 -361.3418 235.23438 C -438.02978 200.29522 -468.27716 130.52516 -479.37891 68.595703 C -489.86089 10.123528 -483.32552 -39.014339 -482.37891 -45.556641 C -464.25205 -46.230694 -435.15761 -53.37224 -409.30664 -60.646484 C -384.0678 -67.748491 -364.2277 -74.294607 -361.34766 -75.248047 z "
       style="color:#000000;font-style:normal;font-variant:normal;font-weight:normal;font-stretch:normal;font-size:medium;line-height:normal;font-family:sans-serif;font-variant-ligatures:normal;font-variant-position:normal;font-variant-caps:normal;font-variant-numeric:normal;font-variant-alternates:normal;font-feature-settings:normal;text-indent:0;text-align:start;text-decoration:none;text-decoration-line:none;text-decoration-style:solid;text-decoration-color:#000000;letter-spacing:normal;word-spacing:normal;text-transform:none;writing-mode:lr-tb;direction:ltr;text-orientation:mixed;dominant-baseline:auto;baseline-shift:baseline;text-anchor:start;white-space:normal;shape-padding:0;clip-rule:nonzero;display:inline;overflow:visible;visibility:visible;opacity:1;isolation:auto;mix-blend-mode:normal;color-interpolation:sRGB;color-interpolation-filters:linearRGB;solid-color:#000000;solid-opacity:1;vector-effect:none;fill:url(#linearGradient3749);fill-opacity:1;fill-rule:nonzero;stroke:none;stroke-width:7.34434366;stroke-linecap:butt;stroke-linejoin:miter;stroke-miterlimit:4;stroke-dasharray:none;stroke-dashoffset:0;stroke-opacity:1;color-rendering:auto;image-rendering:auto;shape-rendering:auto;text-rendering:auto;enable-background:accumulate"
       id="path929"
       d="m -361.29883,-84.818359 a 2.6862935,2.6862935 0 0 0 -0.26758,0.0078 2.6862935,2.6862935 0 0 0 -0.64062,0.128906 c 0,0 -22.71826,7.569476 -49.60352,15.134766 -26.87608,7.562715 -58.50883,14.996094 -73.49609,14.996094 h -2.80078 a 2.6862935,2.6862935 0 0 0 -2.65235,2.265625 l -0.4375,2.765625 c -8.7e-4,0.0055 -8.81917,55.385425 2.71875,119.748047 11.53928,64.370154 43.90801,138.717964 126.05664,174.748044 a 2.6862935,2.6862935 0 0 0 2.15626,0 c 82.14784,-36.02975 114.55969,-110.37284 126.14453,-174.742185 11.58404,-64.3649827 2.81445,-119.751953 2.81445,-119.751953 l -0.4375,-2.767578 a 2.6862935,2.6862935 0 0 0 -2.65234,-2.265625 h -2.80274 c -14.98725,0 -46.67029,-7.433153 -73.5957,-14.996094 -26.93459,-7.565519 -49.70313,-15.134766 -49.70313,-15.134766 a 2.6862935,2.6862935 0 0 0 -0.5332,-0.117187 2.6862935,2.6862935 0 0 0 -0.26758,-0.01953 z m -0.0469,12.390625 c 3.70262,1.221148 22.66256,7.439541 47.32617,14.367187 25.00425,7.023309 52.70815,13.821222 71.46484,14.945313 1.28883,9.492279 6.69654,55.651325 -3.30664,111.232422 -11.00151,61.128242 -40.62543,129.454262 -115.48047,164.115232 -74.85275,-34.66061 -104.4346,-102.98392 -115.39258,-164.111326 -9.96466,-55.586395 -4.51459,-101.751156 -3.21874,-111.236328 18.75029,-1.124122 46.41503,-7.92179 71.375,-14.945313 24.61873,-6.927515 43.53647,-13.14564 47.23242,-14.367187 z"
       transform="matrix(0.6289201,0,0,0.6289201,335.00184,95.866174)" />
    <path
       style="fill:url(#linearGradient3733);fill-opacity:1;stroke:none;stroke-width:0.26458332px;stroke-linecap:butt;stroke-linejoin:miter;stroke-opacity:1"
       d="m 107.74427,49.794911 0.002,160.193559 3.3e-4,31.93334 C 185.19334,207.59242 187.81247,109.76248 182.45432,68.750137 152.58034,63.558001 138.80666,60.296791 107.74427,49.794911 Z"
       id="path3706"
       inkscape:connector-curvature="0"
       sodipodi:nodetypes="ccccc" />
    <circle
       style="opacity:1;fill:#ffffff;fill-opacity:1;stroke:none;stroke-width:0.43873945"
       id="path4568"
       cx="108.41502"
       cy="145.37949"
       r="49.514881" />
    <g
       style="fill:#811d16;fill-opacity:1;stroke:#eeb34e;stroke-width:4.85522308;stroke-miterlimit:4;stroke-dasharray:none;stroke-opacity:1"
       transform="matrix(1.0298188,0,0,1.0298188,-15.814246,-12.893504)"
       id="g4596">
      <g
         aria-label="Security"
         style="font-style:normal;font-weight:normal;font-size:78.90901184px;line-height:1.25;font-family:sans-serif;letter-spacing:0px;word-spacing:0px;fill:#811d16;fill-opacity:1;stroke:#eeb34e;stroke-width:4.85522318;stroke-miterlimit:4;stroke-dasharray:none;stroke-opacity:1"
         id="text4590">
        <path
           d="m 253.96945,115.75762 c -0.71018,-1.65709 -1.736,-2.99854 -2.99854,-4.18217 -1.26255,-1.18364 -2.68291,-2.13055 -4.26109,-2.84073 -1.57818,-0.71018 -3.15636,-1.42036 -4.81345,-1.97272 -1.65709,-0.55237 -3.23527,-1.10473 -4.81345,-1.57818 -1.57818,-0.47346 -2.99854,-1.10473 -4.26109,-1.736 -1.26254,-0.63128 -2.20945,-1.42037 -2.91963,-2.28836 -0.71018,-0.868 -1.18364,-1.97273 -1.18364,-3.314183 0,-1.025817 0.15782,-2.051634 0.55237,-2.919633 0.39454,-0.868 1.02581,-1.65709 1.736,-2.288362 0.71018,-0.631272 1.65708,-1.104726 2.76181,-1.499271 1.10473,-0.315636 2.28836,-0.473454 3.78763,-0.473454 4.10327,0 7.25963,0.394545 9.23236,1.262544 0.31563,3.550906 0.55236,5.681449 0.71018,6.39163 0.23673,0.946908 0.78909,1.499271 1.81491,1.499271 h 3.23527 0.9469 0.31564 V 85.219835 c -5.2869,-2.130543 -10.73163,-3.235269 -16.33417,-3.235269 -2.99854,0 -5.68144,0.473454 -7.96981,1.420362 -2.28836,0.946908 -4.26108,2.130543 -5.83926,3.629814 -1.57818,1.499272 -2.84073,3.314179 -3.62982,5.286904 -0.868,1.972725 -1.26254,4.02436 -1.26254,6.075994 0,2.604 0.47345,4.81345 1.18363,6.54945 0.71018,1.81491 1.65709,3.23527 2.91964,4.4189 1.26254,1.18364 2.6829,2.20946 4.26108,2.91964 1.57818,0.71018 3.15636,1.34145 4.81345,1.89381 1.57818,0.55237 3.23527,0.94691 4.81345,1.42036 1.57818,0.47346 2.91964,1.02582 4.18218,1.65709 1.26255,0.63128 2.28836,1.42037 2.99854,2.36727 0.71018,0.94691 1.10473,2.20946 1.10473,3.70873 0,2.6829 -0.78909,4.73454 -2.44618,6.1549 -1.65709,1.42036 -4.02436,2.13054 -7.0229,2.13054 -4.89236,0 -8.52218,-0.31563 -10.81054,-1.02581 -0.31563,-3.62982 -0.55236,-5.83927 -0.71018,-6.54945 -0.23672,-0.94691 -0.78909,-1.42036 -1.8149,-1.42036 h -3.23527 -0.94691 -0.31564 v 13.25671 1.42036 c 5.83927,1.97273 11.28399,2.99855 16.33417,2.99855 h 1.18363 c 3.15636,0 5.91818,-0.47346 8.36436,-1.42037 2.44618,-0.94691 4.57672,-2.28836 6.23381,-3.94545 1.736,-1.65709 2.99854,-3.62981 3.86654,-5.91817 0.868,-2.28836 1.34145,-4.57673 1.34145,-7.18072 0,-2.36727 -0.31563,-4.41891 -1.10472,-6.076 z"
           style="font-style:normal;font-variant:normal;font-weight:bold;font-stretch:normal;font-family:Aleo;-inkscape-font-specification:'Aleo Bold';fill:#811d16;fill-opacity:1;stroke:#eeb34e;stroke-width:4.85522318;stroke-miterlimit:4;stroke-dasharray:none;stroke-opacity:1"
           id="path910" />
        <path
           d="m 278.30795,98.555458 c -2.99855,0 -5.83927,0.552363 -8.20654,1.578182 -2.36727,1.02582 -4.41891,2.44618 -6.07599,4.26108 -1.65709,1.81491 -2.99855,3.94546 -3.86655,6.39163 -0.868,2.44618 -1.34145,4.97127 -1.34145,7.73309 0,3.5509 0.47345,6.70726 1.49927,9.39017 1.02582,2.68291 2.44618,4.97127 4.26109,6.78618 1.81491,1.8149 3.86654,3.23526 6.31272,4.18217 2.44618,0.94691 4.97127,1.34146 7.81199,1.34146 1.42036,0 2.91963,-0.0789 4.41891,-0.31564 1.49927,-0.23673 2.99854,-0.55236 4.49781,-1.02582 1.42036,-0.47345 2.84072,-1.18363 4.18218,-2.05163 1.34145,-0.868 2.52509,-1.97273 3.62981,-3.23527 l -2.84072,-3.55091 c -0.23673,-0.31563 -0.39455,-0.47345 -0.71018,-0.63127 -0.31564,-0.15782 -0.71018,-0.23673 -1.10473,-0.23673 -0.63127,0 -1.18363,0.15782 -1.81491,0.55237 -0.63127,0.39454 -1.42036,0.71018 -2.28836,1.18363 -0.868,0.47346 -1.81491,0.868 -2.99854,1.26255 -1.10473,0.39454 -2.44618,0.55236 -4.02436,0.55236 -3.23527,0 -5.76036,-0.94691 -7.73308,-2.91963 -1.97273,-1.97273 -3.07746,-4.97127 -3.39309,-9.15345 h 25.01416 c 0.47345,0 0.78909,0 1.10472,-0.15782 0.31564,-0.15781 0.55236,-0.31563 0.71018,-0.63127 0.15782,-0.23673 0.23673,-0.63127 0.31564,-1.10472 0.0789,-0.47346 0.15782,-1.18364 0.15782,-1.89382 0,-2.91963 -0.47346,-5.44472 -1.34146,-7.73308 -0.868,-2.28837 -2.05163,-4.18218 -3.62981,-5.76036 -1.57818,-1.57818 -3.39309,-2.84073 -5.52363,-3.629817 -2.13054,-0.78909 -4.49782,-1.183635 -7.0229,-1.183635 z m 0.15781,6.943992 c 1.42037,0 2.68291,0.31564 3.78764,0.78909 1.10472,0.47346 1.97272,1.10473 2.6829,1.97273 0.71018,0.868 1.26255,1.8149 1.57818,2.91963 0.31564,1.10473 0.55237,2.28836 0.55237,3.55091 h -18.30689 c 0.47345,-2.91964 1.49927,-5.208 3.07745,-6.78618 1.57818,-1.57818 3.78763,-2.44618 6.62835,-2.44618 z"
           style="font-style:normal;font-variant:normal;font-weight:bold;font-stretch:normal;font-family:Aleo;-inkscape-font-specification:'Aleo Bold';fill:#811d16;fill-opacity:1;stroke:#eeb34e;stroke-width:4.85522318;stroke-miterlimit:4;stroke-dasharray:none;stroke-opacity:1"
           id="path912" />
        <path
           d="m 330.83176,130.04015 c -0.39455,-0.63127 -1.02582,-0.868 -1.81491,-0.868 -0.63127,0 -1.10473,0.15782 -1.57818,0.55237 -0.47346,0.39454 -1.10473,0.78909 -1.736,1.26254 -0.63127,0.47346 -1.49927,0.868 -2.44618,1.26255 -0.94691,0.39454 -2.20945,0.55236 -3.78763,0.55236 -1.57818,0 -2.91963,-0.31564 -4.18218,-0.868 -1.26254,-0.63127 -2.28836,-1.49927 -3.15636,-2.604 -0.868,-1.18363 -1.49927,-2.60399 -1.97272,-4.26108 -0.47346,-1.65709 -0.71019,-3.62982 -0.71019,-5.76036 0,-2.05164 0.23673,-3.86654 0.63128,-5.52363 0.39454,-1.65709 1.10472,-3.07745 1.97272,-4.26109 0.868,-1.18363 1.89382,-1.97272 3.15636,-2.604 1.26255,-0.63127 2.76182,-0.9469 4.49782,-0.9469 1.34145,0 3.15636,0.23672 5.20799,0.78909 0.31564,3.15636 0.55236,5.05017 0.63127,5.68144 0.23673,0.94691 0.78909,1.49928 1.81491,1.49928 h 3.23527 0.94691 0.31563 l 0.0789,-12.46763 c -5.20799,-1.972724 -9.46908,-2.919632 -12.78326,-2.919632 -3.15636,0 -5.99708,0.552363 -8.44326,1.578182 -2.44618,1.02582 -4.49782,2.44618 -6.1549,4.33999 -1.65709,1.89382 -2.91964,4.10327 -3.78764,6.62836 -0.868,2.52509 -1.26254,5.208 -1.26254,8.20654 0,3.31418 0.47345,6.31272 1.42036,8.91672 0.94691,2.60399 2.28836,4.73454 3.94545,6.54944 1.65709,1.81491 3.55091,3.15636 5.76036,4.10327 2.20945,0.94691 4.49781,1.34146 7.0229,1.34146 1.42036,0 2.91963,-0.0789 4.34,-0.31564 1.42036,-0.23673 2.84072,-0.55236 4.18217,-1.02582 1.34146,-0.55236 2.68291,-1.18363 3.94546,-2.05163 1.26254,-0.868 2.36727,-1.97273 3.47199,-3.23527 z"
           style="font-style:normal;font-variant:normal;font-weight:bold;font-stretch:normal;font-family:Aleo;-inkscape-font-specification:'Aleo Bold';fill:#811d16;fill-opacity:1;stroke:#eeb34e;stroke-width:4.85522318;stroke-miterlimit:4;stroke-dasharray:none;stroke-opacity:1"
           id="path914" />
        <path
           d="m 380.77993,132.56524 c -0.63128,-0.0789 -0.55237,-0.0789 -3.94545,-0.71018 V 99.18673 h -9.78472 -5.91818 v 4.65563 c 0,1.34146 0.63127,2.13055 1.97273,2.44618 0.63127,0.0789 0.63127,0.15782 3.94545,0.71018 v 21.46325 c -1.34145,1.34146 -2.68291,2.36727 -4.18218,3.07746 -1.49927,0.71018 -3.07745,1.10472 -4.73454,1.10472 -2.28836,0 -4.02436,-0.63127 -5.12909,-1.97272 -1.10472,-1.34146 -1.73599,-3.31418 -1.73599,-5.76036 V 99.18673 h -9.70581 -5.99709 v 4.65563 c 0,1.34146 0.63127,2.13055 1.97273,2.44618 0.63127,0.0789 0.63127,0.0789 4.02436,0.71018 v 17.91235 c 0,2.28836 0.31563,4.33999 0.868,6.23381 0.63127,1.89382 1.42036,3.472 2.60399,4.81345 1.18364,1.34145 2.604,2.52509 4.26109,3.23527 1.736,0.71018 3.70872,1.10473 5.91818,1.10473 1.34145,0 2.52509,-0.15782 3.70872,-0.39455 1.18364,-0.31564 2.28836,-0.71018 3.31418,-1.18363 1.02582,-0.47346 1.97272,-1.02582 2.84072,-1.736 0.868,-0.71018 1.736,-1.49927 2.604,-2.36727 l 0.71018,3.23527 c 0.39455,1.18363 1.18364,1.8149 2.44618,1.8149 h 5.99709 5.91817 v -4.65563 c 0,-1.34145 -0.63127,-2.13054 -1.97272,-2.44618 z"
           style="font-style:normal;font-variant:normal;font-weight:bold;font-stretch:normal;font-family:Aleo;-inkscape-font-specification:'Aleo Bold';fill:#811d16;fill-opacity:1;stroke:#eeb34e;stroke-width:4.85522318;stroke-miterlimit:4;stroke-dasharray:none;stroke-opacity:1"
           id="path916" />
        <path
           d="m 412.64807,98.476549 c -2.44618,0 -4.57672,0.710181 -6.54945,2.130541 -1.97273,1.42036 -3.62981,3.39309 -5.05018,5.91818 l -0.63127,-4.89236 c -0.15782,-0.868 -0.39454,-1.49927 -0.78909,-1.893817 -0.39454,-0.394545 -1.02582,-0.552363 -2.05163,-0.552363 h -5.76036 -5.91818 v 4.65563 c 0,1.34146 0.63127,2.13055 1.97273,2.44618 0.63127,0.0789 0.55236,0.0789 3.94545,0.71018 v 24.85634 c -3.39309,0.63127 -3.31418,0.63127 -3.94545,0.71018 -1.34146,0.31564 -1.97273,1.10473 -1.97273,2.44618 v 4.65563 h 5.91818 9.78472 5.91817 v -4.65563 c 0,-1.34145 -0.63127,-2.13054 -1.97272,-2.44618 -0.63128,-0.0789 -0.55237,-0.0789 -3.94545,-0.71018 v -17.35998 c 1.02581,-2.13054 2.20945,-3.86654 3.62981,-4.97127 1.42036,-1.10473 3.15636,-1.65709 5.208,-1.65709 1.10472,0 2.05163,0.15782 2.76181,0.31564 0.71018,0.15782 1.18364,0.23672 1.57818,0.23672 0.47346,0 0.868,-0.15781 1.10473,-0.31563 0.23672,-0.15782 0.39454,-0.47346 0.47345,-0.94691 l 1.26255,-7.338538 c -1.34146,-0.946908 -2.99855,-1.341453 -4.97127,-1.341453 z"
           style="font-style:normal;font-variant:normal;font-weight:bold;font-stretch:normal;font-family:Aleo;-inkscape-font-specification:'Aleo Bold';fill:#811d16;fill-opacity:1;stroke:#eeb34e;stroke-width:4.85522318;stroke-miterlimit:4;stroke-dasharray:none;stroke-opacity:1"
           id="path918" />
        <path
           d="m 439.83592,132.56524 c -0.0789,0 -0.23672,-0.0789 -0.47345,-0.0789 -0.23673,0 -0.63127,-0.15781 -1.18364,-0.23672 -0.55236,-0.0789 -1.42036,-0.23673 -2.36727,-0.39455 V 99.18673 h -9.7058 -5.99709 v 4.65563 c 0,1.34146 0.63127,2.13055 1.97273,2.44618 0.0789,0 0.23672,0.0789 0.47345,0.0789 0.23673,0 0.63127,0.15782 1.18364,0.23673 0.55236,0.0789 1.42036,0.23672 2.36727,0.39454 v 24.85634 c -0.94691,0.15782 -1.81491,0.31564 -2.36727,0.39455 -0.55237,0.0789 -0.94691,0.15781 -1.18364,0.23672 -0.23673,0 -0.39454,0.0789 -0.47345,0.0789 -1.34146,0.31564 -1.97273,1.10473 -1.97273,2.44618 v 4.65563 h 5.99709 9.7058 5.99709 v -4.65563 c 0,-1.34145 -0.63127,-2.13054 -1.97273,-2.44618 z m -2.52508,-45.214862 c 0,-0.867999 -0.23673,-1.657089 -0.55237,-2.446179 -0.31563,-0.78909 -0.78909,-1.420362 -1.34145,-1.972725 -0.55236,-0.552363 -1.18364,-0.946908 -1.97273,-1.262544 -0.78909,-0.315637 -1.57818,-0.552364 -2.44618,-0.552364 -0.86799,0 -1.65708,0.236727 -2.44617,0.552364 -0.78909,0.315636 -1.34146,0.710181 -1.89382,1.262544 -0.55236,0.552363 -1.02582,1.183635 -1.34145,1.972725 -0.31564,0.78909 -0.47346,1.57818 -0.47346,2.446179 0,0.868 0.15782,1.65709 0.47346,2.367271 0.31563,0.710181 0.78909,1.420362 1.34145,1.972725 0.55236,0.552363 1.10473,1.025817 1.89382,1.341453 0.78909,0.315636 1.57818,0.473454 2.44617,0.473454 0.868,0 1.65709,-0.157818 2.44618,-0.473454 0.78909,-0.315636 1.42037,-0.78909 1.97273,-1.341453 0.55236,-0.552363 1.02582,-1.262544 1.34145,-1.972725 0.31564,-0.710181 0.55237,-1.499271 0.55237,-2.367271 z"
           style="font-style:normal;font-variant:normal;font-weight:bold;font-stretch:normal;font-family:Aleo;-inkscape-font-specification:'Aleo Bold';fill:#811d16;fill-opacity:1;stroke:#eeb34e;stroke-width:4.85522318;stroke-miterlimit:4;stroke-dasharray:none;stroke-opacity:1"
           id="path920" />
        <path
           d="m 461.18451,140.29833 c 1.97272,0 3.86654,-0.31564 5.68145,-0.94691 1.8149,-0.63127 3.47199,-1.49927 4.89235,-2.68291 l -2.91963,-4.73454 c -0.23673,-0.31564 -0.39454,-0.47345 -0.55236,-0.63127 -0.15782,-0.15782 -0.47346,-0.15782 -0.78909,-0.15782 -0.23673,0 -0.39455,0 -0.63127,0.15782 -0.23673,0.15782 -0.55237,0.31563 -0.868,0.47345 -0.31564,0.15782 -0.63128,0.31564 -1.02582,0.47346 -0.39455,0.15781 -0.868,0.15781 -1.49927,0.15781 -1.02582,0 -1.89382,-0.31563 -2.52509,-1.02581 -0.63127,-0.71018 -0.94691,-1.65709 -0.94691,-2.91964 v -21.9367 h 10.65272 v -6.943995 h -10.65272 v -12.78326 h -5.05017 c -0.55237,0 -1.10473,0.157818 -1.49928,0.473454 -0.39454,0.315636 -0.63127,0.631272 -0.71018,1.183636 l -2.05163,11.047261 -6.54945,1.025814 v 3.94545 c 0,0.71019 0.23673,1.18364 0.63127,1.49928 0.39455,0.31563 0.78909,0.55236 1.34146,0.55236 h 4.10326 v 22.56798 c 0,3.47199 0.94691,6.23381 2.84073,8.20653 1.89382,1.97273 4.65563,2.99855 8.12763,2.99855 z"
           style="font-style:normal;font-variant:normal;font-weight:bold;font-stretch:normal;font-family:Aleo;-inkscape-font-specification:'Aleo Bold';fill:#811d16;fill-opacity:1;stroke:#eeb34e;stroke-width:4.85522318;stroke-miterlimit:4;stroke-dasharray:none;stroke-opacity:1"
           id="path922" />
        <path
           d="m 517.29252,99.18673 h -7.81199 -9.54799 v 4.65563 c 0,1.34146 0.63127,2.13055 1.97272,2.44618 0.47346,0.0789 0.63128,0.0789 2.68291,0.47346 l -5.91818,15.22943 c -0.31563,0.71019 -0.55236,1.42037 -0.78909,2.13055 -0.23672,0.71018 -0.47345,1.42036 -0.71018,2.20945 -0.15782,-0.71018 -0.31563,-1.49927 -0.55236,-2.20945 -0.23673,-0.71018 -0.39455,-1.42036 -0.71018,-2.13055 l -6.39163,-15.38725 c 1.26254,-0.23673 1.49927,-0.23673 1.89381,-0.31564 1.34146,-0.31563 1.97273,-1.10472 1.97273,-2.44618 v -4.65563 h -8.91672 -8.52217 -2.28836 v 4.65563 c 0,1.34146 0.63127,2.13055 1.97272,2.44618 0.63127,0.0789 0.39455,0.15782 3.70873,0.71018 l 13.01998,29.66979 -7.57526,16.17635 h 7.25963 c 0.94691,0 1.57818,-0.0789 2.05163,-0.47346 0.47346,-0.31563 0.868,-0.868 1.18364,-1.57818 l 18.70143,-43.7945 c 3.31418,-0.55236 3.07745,-0.63127 3.70873,-0.71018 1.34145,-0.31563 1.97272,-1.10472 1.97272,-2.44618 v -4.65563 z"
           style="font-style:normal;font-variant:normal;font-weight:bold;font-stretch:normal;font-family:Aleo;-inkscape-font-specification:'Aleo Bold';fill:#811d16;fill-opacity:1;stroke:#eeb34e;stroke-width:4.85522318;stroke-miterlimit:4;stroke-dasharray:none;stroke-opacity:1"
           id="path924" />
      </g>
      <g
         aria-label="Vagas"
         style="font-style:normal;font-weight:normal;font-size:64.55464172px;line-height:1.25;font-family:sans-serif;letter-spacing:0px;word-spacing:0px;fill:#811d16;fill-opacity:1;stroke:#eeb34e;stroke-width:4.85522318;stroke-miterlimit:4;stroke-dasharray:none;stroke-opacity:1"
         id="text4594">
        <path
           d="m 358.75015,150.94928 h -2.64674 -4.32516 -8.263 v 3.80872 c 0,1.09743 0.51644,1.74298 1.61387,2.0012 0.0645,0 0.19366,0 0.32277,0.0645 0.12911,0.0646 0.38733,0.12911 0.7101,0.19366 0.32278,0.0646 0.64555,0.19367 1.03288,0.25822 l -9.23132,24.14344 c -0.7101,1.87208 -1.35564,4.06694 -1.87208,6.52002 -0.32277,-1.22654 -0.64555,-2.38852 -0.96832,-3.48595 -0.32277,-1.09743 -0.64555,-2.13031 -1.03288,-3.03407 l -9.29586,-24.14344 c 0.38732,-0.0645 0.7101,-0.19366 1.03287,-0.25822 0.32277,-0.0646 0.51644,-0.1291 0.64555,-0.19366 0.12911,-0.0645 0.25822,-0.0645 0.32277,-0.0645 1.09743,-0.25822 1.61387,-0.90377 1.61387,-2.0012 v -3.80872 h -8.19844 -4.32516 -2.64674 -2.25942 v 3.80872 c 0,1.09743 0.51644,1.74298 1.61387,2.0012 0.12911,0 0.19366,0 0.38733,0.0645 0.19366,0 0.51643,0.12911 0.96832,0.19366 0.45188,0.0646 1.03287,0.19367 1.80753,0.32278 l 16.33232,40.28209 h 7.81111 l 16.26777,-40.28209 c 0.77466,-0.12911 1.4202,-0.25822 1.87209,-0.32278 0.45188,-0.0646 0.7101,-0.19366 0.90376,-0.19366 0.19367,0 0.25822,-0.0645 0.38733,-0.0645 1.09743,-0.25822 1.61387,-0.90377 1.61387,-2.0012 v -3.80872 z"
           style="font-style:normal;font-variant:normal;font-weight:bold;font-stretch:normal;font-family:Aleo;-inkscape-font-specification:'Aleo Bold';fill:#811d16;fill-opacity:1;stroke:#eeb34e;stroke-width:4.85522318;stroke-miterlimit:4;stroke-dasharray:none;stroke-opacity:1"
           id="path927" />
        <path
           d="m 388.84169,191.74781 c -0.0646,0 -0.32277,-0.0645 -0.7101,-0.12911 -0.38733,-0.0645 -1.03288,-0.19366 -1.74298,-0.32277 v -14.6539 c 0,-1.87209 -0.25822,-3.61506 -0.77465,-5.16438 -0.51644,-1.54931 -1.42021,-2.90495 -2.45308,-4.06694 -1.03287,-1.09743 -2.32397,-2.00119 -3.80872,-2.64674 -1.54932,-0.64555 -3.29229,-0.96832 -5.22893,-0.96832 -5.35804,0 -9.94141,1.80753 -13.75014,5.29348 l 1.48476,2.51763 c 0.25822,0.38733 0.51644,0.77466 0.90376,1.03288 0.38733,0.25822 0.90377,0.38733 1.42021,0.38733 0.64554,0 1.22653,-0.12911 1.74297,-0.45189 0.51644,-0.32277 1.09743,-0.58099 1.74298,-0.96832 0.64554,-0.38732 1.4202,-0.7101 2.25941,-1.03287 0.83921,-0.32277 1.93664,-0.45188 3.22773,-0.45188 1.80753,0 3.16318,0.51643 4.06694,1.61386 0.90377,1.09743 1.4202,2.7113 1.4202,4.97071 v 1.93664 c -3.74416,0 -6.9719,0.32277 -9.48953,0.96832 -2.51763,0.64555 -4.51882,1.48476 -6.06813,2.45308 -1.54932,0.96831 -2.64674,2.06574 -3.29229,3.29228 -0.64555,1.22654 -0.96832,2.51763 -0.96832,3.74417 0,1.48476 0.25822,2.77585 0.7101,3.87328 0.45188,1.09743 1.16198,2.06575 2.00119,2.8404 0.83922,0.77466 1.87209,1.2911 3.03407,1.67842 1.16199,0.38733 2.45308,0.581 3.87328,0.581 1.16199,0 2.25941,-0.12911 3.22773,-0.32278 0.96832,-0.19366 1.87209,-0.45188 2.7113,-0.83921 0.83921,-0.38732 1.74297,-0.83921 2.51763,-1.4202 0.83921,-0.58099 1.61387,-1.22654 2.45308,-2.00119 l 0.7101,2.32396 c 0.19366,0.71011 0.51643,1.22654 0.96832,1.42021 0.45188,0.25821 1.03287,0.32277 1.80753,0.32277 h 2.71129 0.83921 4.06694 v -3.80872 c 0,-1.09743 -0.51643,-1.74298 -1.61386,-2.0012 z m -10.19964,-2.71129 c -0.58099,0.58099 -1.16198,1.09743 -1.74297,1.54931 -0.58099,0.45188 -1.16198,0.77465 -1.74298,1.09743 -0.58099,0.32277 -1.29109,0.58099 -2.00119,0.7101 -0.7101,0.12911 -1.4202,0.19366 -2.25941,0.19366 -1.35565,0 -2.38852,-0.32277 -3.22773,-0.90376 -0.83921,-0.58099 -1.22654,-1.61387 -1.22654,-3.03407 0,-0.7101 0.19366,-1.4202 0.58099,-2.0012 0.38733,-0.58099 1.03287,-1.09742 2.00119,-1.54931 0.96832,-0.45188 2.25942,-0.83921 3.80873,-1.16198 1.54931,-0.32277 3.48595,-0.45188 5.80991,-0.45188 z"
           style="font-style:normal;font-variant:normal;font-weight:bold;font-stretch:normal;font-family:Aleo;-inkscape-font-specification:'Aleo Bold';fill:#811d16;fill-opacity:1;stroke:#eeb34e;stroke-width:4.85522318;stroke-miterlimit:4;stroke-dasharray:none;stroke-opacity:1"
           id="path930" />
        <path
           d="m 407.07736,163.92476 c -1.87208,0 -3.67961,0.25822 -5.29348,0.77466 -1.61386,0.51643 -2.96951,1.22653 -4.13149,2.1303 -1.16199,0.90376 -2.13031,2.06575 -2.77585,3.35684 -0.64555,1.29109 -0.96832,2.84041 -0.96832,4.45427 0,2.0012 0.45188,3.80873 1.4202,5.29348 0.96832,1.48476 2.32397,2.7113 4.00239,3.61506 -0.7101,0.38733 -1.42021,0.77466 -1.93664,1.22654 -0.51644,0.45188 -0.96832,0.96832 -1.35565,1.48476 -0.38733,0.51643 -0.58099,1.03287 -0.77466,1.54931 -0.19366,0.51644 -0.25821,1.03287 -0.25821,1.54931 0,1.22654 0.25821,2.19486 0.77465,2.96951 0.51644,0.77466 1.09743,1.35565 1.93664,1.80753 -1.67842,0.64555 -2.96951,1.42021 -3.93783,2.45308 -0.96832,1.03287 -1.42021,2.38852 -1.42021,3.93783 0,1.16199 0.32278,2.25942 0.90377,3.29229 0.58099,1.03287 1.48476,2.00119 2.71129,2.77585 1.22654,0.77465 2.7113,1.4202 4.58338,1.93664 1.87209,0.51644 4.06695,0.7101 6.58458,0.7101 2.51763,0 4.77704,-0.32277 6.77824,-0.96832 2.00119,-0.64555 3.67961,-1.48476 5.03526,-2.58219 1.35564,-1.09742 2.38852,-2.32396 3.09862,-3.67961 0.7101,-1.35565 1.09743,-2.77585 1.09743,-4.26061 0,-1.54931 -0.25822,-2.8404 -0.90377,-3.87328 -0.64554,-1.03287 -1.4202,-1.74297 -2.45307,-2.32396 -1.03288,-0.58099 -2.06575,-1.03288 -3.35684,-1.2911 -1.2911,-0.25821 -2.58219,-0.45188 -3.93784,-0.58099 -1.35564,-0.12911 -2.58218,-0.12911 -3.87328,-0.19366 -1.29109,0 -2.38852,-0.12911 -3.42139,-0.25822 -1.03288,-0.12911 -1.80753,-0.32277 -2.45308,-0.64555 -0.64554,-0.32277 -0.90376,-0.83921 -0.90376,-1.48475 0,-0.77466 0.51643,-1.4202 1.54931,-2.06575 1.16198,0.25822 2.45307,0.32277 3.67961,0.32277 1.87209,0 3.55051,-0.25822 5.09982,-0.77465 1.54931,-0.51644 2.96951,-1.22654 4.1315,-2.13031 1.16198,-0.90376 2.06575,-2.06575 2.71129,-3.35684 0.64555,-1.29109 0.96832,-2.8404 0.96832,-4.45427 0,-0.7101 -0.0645,-1.29109 -0.19366,-1.93664 -0.12911,-0.64554 -0.25822,-1.22654 -0.45188,-1.80753 l 2.96951,-0.51643 c 0.64554,-0.12911 1.03287,-0.32278 1.29109,-0.581 0.25822,-0.25822 0.38733,-0.64554 0.38733,-1.16198 v -2.96951 h -9.48953 c -1.03288,-0.581 -2.19486,-1.03288 -3.4214,-1.2911 -1.22654,-0.25822 -2.58218,-0.45188 -4.00239,-0.45188 z m 8.71488,35.18228 c 0,0.64555 -0.12911,1.29109 -0.45188,1.80753 -0.32278,0.51644 -0.83921,1.03287 -1.54931,1.4202 -0.71011,0.38733 -1.54932,0.64555 -2.64674,0.90377 -1.09743,0.25822 -2.38853,0.38733 -3.87328,0.38733 -1.48476,0 -2.64674,-0.12911 -3.67962,-0.32278 -1.03287,-0.19366 -1.87208,-0.45188 -2.51763,-0.83921 -0.64555,-0.38733 -1.09743,-0.83921 -1.35565,-1.35565 -0.25821,-0.51643 -0.45188,-1.03287 -0.45188,-1.61386 0,-0.90377 0.32277,-1.67842 0.83921,-2.32397 0.51644,-0.64554 1.29109,-1.22654 2.19486,-1.74297 0.96832,0.12911 2.00119,0.19366 3.03407,0.25821 1.03287,0.0646 2.06575,0.0646 3.09862,0.12911 1.03287,0.0646 1.93664,0.12911 2.8404,0.25822 0.90377,0.12911 1.74298,0.25822 2.38853,0.51644 0.64554,0.25822 1.16198,0.58099 1.54931,0.96832 0.38733,0.38733 0.58099,0.90376 0.58099,1.54931 z m -8.71488,-18.84995 c -0.96832,0 -1.80753,-0.12911 -2.58218,-0.38733 -0.77466,-0.25822 -1.35565,-0.64555 -1.87209,-1.16199 -0.51643,-0.51643 -0.83921,-1.03287 -1.09743,-1.67842 -0.25821,-0.64554 -0.32277,-1.4202 -0.32277,-2.19485 0,-1.61387 0.45188,-2.90496 1.4202,-3.87328 0.96832,-0.96832 2.51763,-1.42021 4.45427,-1.42021 1.93664,0 3.4214,0.45189 4.38972,1.42021 0.96832,0.96832 1.48476,2.25941 1.48476,3.87328 0,0.77465 -0.12911,1.54931 -0.38733,2.19485 -0.25822,0.64555 -0.58099,1.2911 -1.09743,1.74298 -0.45188,0.45188 -1.09743,0.83921 -1.80753,1.09743 -0.7101,0.25822 -1.61387,0.38733 -2.58219,0.38733 z"
           style="font-style:normal;font-variant:normal;font-weight:bold;font-stretch:normal;font-family:Aleo;-inkscape-font-specification:'Aleo Bold';fill:#811d16;fill-opacity:1;stroke:#eeb34e;stroke-width:4.85522318;stroke-miterlimit:4;stroke-dasharray:none;stroke-opacity:1"
           id="path932" />
        <path
           d="m 455.79192,191.74781 c -0.0646,0 -0.32278,-0.0645 -0.7101,-0.12911 -0.38733,-0.0645 -1.03288,-0.19366 -1.74298,-0.32277 v -14.6539 c 0,-1.87209 -0.25822,-3.61506 -0.77465,-5.16438 -0.51644,-1.54931 -1.42021,-2.90495 -2.45308,-4.06694 -1.03287,-1.09743 -2.32397,-2.00119 -3.80872,-2.64674 -1.54932,-0.64555 -3.29229,-0.96832 -5.22893,-0.96832 -5.35804,0 -9.94142,1.80753 -13.75014,5.29348 l 1.48476,2.51763 c 0.25822,0.38733 0.51643,0.77466 0.90376,1.03288 0.38733,0.25822 0.90377,0.38733 1.4202,0.38733 0.64555,0 1.22654,-0.12911 1.74298,-0.45189 0.51644,-0.32277 1.09743,-0.58099 1.74298,-0.96832 0.64554,-0.38732 1.4202,-0.7101 2.25941,-1.03287 0.83921,-0.32277 1.93664,-0.45188 3.22773,-0.45188 1.80753,0 3.16318,0.51643 4.06694,1.61386 0.90377,1.09743 1.4202,2.7113 1.4202,4.97071 v 1.93664 c -3.74416,0 -6.9719,0.32277 -9.48953,0.96832 -2.51763,0.64555 -4.51882,1.48476 -6.06813,2.45308 -1.54932,0.96831 -2.64674,2.06574 -3.29229,3.29228 -0.64555,1.22654 -0.96832,2.51763 -0.96832,3.74417 0,1.48476 0.25822,2.77585 0.7101,3.87328 0.45188,1.09743 1.16198,2.06575 2.00119,2.8404 0.83921,0.77466 1.87209,1.2911 3.03407,1.67842 1.16199,0.38733 2.45308,0.581 3.87328,0.581 1.16198,0 2.25941,-0.12911 3.22773,-0.32278 0.96832,-0.19366 1.87209,-0.45188 2.7113,-0.83921 0.83921,-0.38732 1.74297,-0.83921 2.51763,-1.4202 0.83921,-0.58099 1.61387,-1.22654 2.45308,-2.00119 l 0.7101,2.32396 c 0.19366,0.71011 0.51643,1.22654 0.96832,1.42021 0.45188,0.25821 1.03287,0.32277 1.80753,0.32277 h 2.71129 0.83921 4.06694 v -3.80872 c 0,-1.09743 -0.51643,-1.74298 -1.61386,-2.0012 z m -10.19964,-2.71129 c -0.58099,0.58099 -1.16198,1.09743 -1.74297,1.54931 -0.58099,0.45188 -1.16198,0.77465 -1.74298,1.09743 -0.58099,0.32277 -1.29109,0.58099 -2.00119,0.7101 -0.7101,0.12911 -1.4202,0.19366 -2.25941,0.19366 -1.35565,0 -2.38852,-0.32277 -3.22773,-0.90376 -0.83921,-0.58099 -1.22654,-1.61387 -1.22654,-3.03407 0,-0.7101 0.19366,-1.4202 0.58099,-2.0012 0.38733,-0.58099 1.03287,-1.09742 2.00119,-1.54931 0.96832,-0.45188 2.25942,-0.83921 3.80873,-1.16198 1.54931,-0.32277 3.48595,-0.45188 5.80991,-0.45188 z"
           style="font-style:normal;font-variant:normal;font-weight:bold;font-stretch:normal;font-family:Aleo;-inkscape-font-specification:'Aleo Bold';fill:#811d16;fill-opacity:1;stroke:#eeb34e;stroke-width:4.85522318;stroke-miterlimit:4;stroke-dasharray:none;stroke-opacity:1"
           id="path934" />
        <path
           d="m 483.00068,183.67848 c -0.45188,-0.96832 -1.03287,-1.74297 -1.80753,-2.38852 -0.77465,-0.7101 -1.61386,-1.22654 -2.58218,-1.67842 -0.96832,-0.45188 -2.0012,-0.90377 -3.03407,-1.22654 -1.03287,-0.32277 -2.00119,-0.64555 -2.96951,-0.90376 -0.96832,-0.25822 -1.80753,-0.64555 -2.58219,-1.03288 -0.77465,-0.38733 -1.35565,-0.7101 -1.80753,-1.22654 -0.45188,-0.51643 -0.7101,-1.09743 -0.7101,-1.80753 0,-1.09743 0.45188,-2.00119 1.35565,-2.64674 0.90376,-0.64554 2.1303,-0.96832 3.67961,-0.96832 1.48476,0 3.03407,0.19367 3.87328,0.45189 0.25822,2.51763 0.38733,3.29228 0.45188,3.61506 0.19367,0.77465 0.64555,1.22653 1.48476,1.22653 h 2.64674 0.77466 0.25821 v -9.36042 h 0.0646 c -4.64794,-1.4202 -6.45547,-1.74297 -9.6832,-1.74297 -2.06575,0 -3.80872,0.32277 -5.35803,0.83921 -1.54931,0.51643 -2.90496,1.29109 -3.93784,2.19485 -1.03287,0.90377 -1.87208,2.0012 -2.38852,3.22774 -0.51643,1.22653 -0.77465,2.51763 -0.77465,3.87327 0,1.48476 0.25822,2.7113 0.7101,3.74417 0.45188,1.03288 1.03287,1.87209 1.80753,2.58219 0.77465,0.7101 1.67842,1.29109 2.64674,1.74297 0.96832,0.45189 1.93664,0.90377 2.96951,1.22654 1.03288,0.32278 2.06575,0.64555 3.03407,0.96832 0.96832,0.25822 1.80753,0.58099 2.58219,0.96832 0.77465,0.38733 1.4202,0.77466 1.87208,1.29109 0.45188,0.51644 0.64555,1.09743 0.64555,1.87209 0,0.51644 -0.0646,1.03287 -0.25822,1.54931 -0.19367,0.51644 -0.51644,0.83921 -0.96832,1.22654 -0.45188,0.38733 -0.96832,0.64555 -1.67842,0.90376 -0.64555,0.19367 -1.48476,0.32278 -2.45308,0.32278 -1.4202,0 -3.48595,0 -5.22892,-0.51644 -0.25822,-2.58219 -0.38733,-3.48595 -0.45189,-3.80872 -0.19366,-0.77466 -0.64554,-1.22654 -1.48475,-1.22654 h -2.64674 -0.77466 -0.32277 v 6.13269 3.22773 c 2.38852,0.90377 6.39091,1.80753 10.5224,1.80753 2.13031,0 4.06695,-0.25822 5.68081,-0.83921 1.67842,-0.51644 3.03407,-1.29109 4.1315,-2.25941 1.09743,-0.96832 1.93664,-2.1303 2.51763,-3.48595 0.58099,-1.35565 0.90377,-2.84041 0.90377,-4.45427 0,-1.35565 -0.25822,-2.45308 -0.71011,-3.4214 z"
           style="font-style:normal;font-variant:normal;font-weight:bold;font-stretch:normal;font-family:Aleo;-inkscape-font-specification:'Aleo Bold';fill:#811d16;fill-opacity:1;stroke:#eeb34e;stroke-width:4.85522318;stroke-miterlimit:4;stroke-dasharray:none;stroke-opacity:1"
           id="path936" />
      </g>
    </g>
    <g
       id="g59"
       transform="matrix(1.0298188,0,0,1.0298188,-15.814246,-12.893504)"
       style="fill:#811d16;fill-opacity:1">
      <g
         aria-label="Security"
         style="font-style:normal;font-weight:normal;font-size:78.90901184px;line-height:1.25;font-family:sans-serif;letter-spacing:0px;word-spacing:0px;fill:#811d16;fill-opacity:1;stroke:none;stroke-width:1.97272515"
         id="text1085">
        <path
           d="m 253.96945,115.75762 c -0.71018,-1.65709 -1.736,-2.99854 -2.99854,-4.18217 -1.26255,-1.18364 -2.68291,-2.13055 -4.26109,-2.84073 -1.57818,-0.71018 -3.15636,-1.42036 -4.81345,-1.97272 -1.65709,-0.55237 -3.23527,-1.10473 -4.81345,-1.57818 -1.57818,-0.47346 -2.99854,-1.10473 -4.26109,-1.736 -1.26254,-0.63128 -2.20945,-1.42037 -2.91963,-2.28836 -0.71018,-0.868 -1.18364,-1.97273 -1.18364,-3.314183 0,-1.025817 0.15782,-2.051634 0.55237,-2.919633 0.39454,-0.868 1.02581,-1.65709 1.736,-2.288362 0.71018,-0.631272 1.65708,-1.104726 2.76181,-1.499271 1.10473,-0.315636 2.28836,-0.473454 3.78763,-0.473454 4.10327,0 7.25963,0.394545 9.23236,1.262544 0.31563,3.550906 0.55236,5.681449 0.71018,6.39163 0.23673,0.946908 0.78909,1.499271 1.81491,1.499271 h 3.23527 0.9469 0.31564 V 85.219835 c -5.2869,-2.130543 -10.73163,-3.235269 -16.33417,-3.235269 -2.99854,0 -5.68144,0.473454 -7.96981,1.420362 -2.28836,0.946908 -4.26108,2.130543 -5.83926,3.629814 -1.57818,1.499272 -2.84073,3.314179 -3.62982,5.286904 -0.868,1.972725 -1.26254,4.02436 -1.26254,6.075994 0,2.604 0.47345,4.81345 1.18363,6.54945 0.71018,1.81491 1.65709,3.23527 2.91964,4.4189 1.26254,1.18364 2.6829,2.20946 4.26108,2.91964 1.57818,0.71018 3.15636,1.34145 4.81345,1.89381 1.57818,0.55237 3.23527,0.94691 4.81345,1.42036 1.57818,0.47346 2.91964,1.02582 4.18218,1.65709 1.26255,0.63128 2.28836,1.42037 2.99854,2.36727 0.71018,0.94691 1.10473,2.20946 1.10473,3.70873 0,2.6829 -0.78909,4.73454 -2.44618,6.1549 -1.65709,1.42036 -4.02436,2.13054 -7.0229,2.13054 -4.89236,0 -8.52218,-0.31563 -10.81054,-1.02581 -0.31563,-3.62982 -0.55236,-5.83927 -0.71018,-6.54945 -0.23672,-0.94691 -0.78909,-1.42036 -1.8149,-1.42036 h -3.23527 -0.94691 -0.31564 v 13.25671 1.42036 c 5.83927,1.97273 11.28399,2.99855 16.33417,2.99855 h 1.18363 c 3.15636,0 5.91818,-0.47346 8.36436,-1.42037 2.44618,-0.94691 4.57672,-2.28836 6.23381,-3.94545 1.736,-1.65709 2.99854,-3.62981 3.86654,-5.91817 0.868,-2.28836 1.34145,-4.57673 1.34145,-7.18072 0,-2.36727 -0.31563,-4.41891 -1.10472,-6.076 z"
           style="font-style:normal;font-variant:normal;font-weight:bold;font-stretch:normal;font-family:Aleo;-inkscape-font-specification:'Aleo Bold';fill:#811d16;fill-opacity:1;stroke-width:1.97272515"
           id="path882" />
        <path
           d="m 278.30795,98.555458 c -2.99855,0 -5.83927,0.552363 -8.20654,1.578182 -2.36727,1.02582 -4.41891,2.44618 -6.07599,4.26108 -1.65709,1.81491 -2.99855,3.94546 -3.86655,6.39163 -0.868,2.44618 -1.34145,4.97127 -1.34145,7.73309 0,3.5509 0.47345,6.70726 1.49927,9.39017 1.02582,2.68291 2.44618,4.97127 4.26109,6.78618 1.81491,1.8149 3.86654,3.23526 6.31272,4.18217 2.44618,0.94691 4.97127,1.34146 7.81199,1.34146 1.42036,0 2.91963,-0.0789 4.41891,-0.31564 1.49927,-0.23673 2.99854,-0.55236 4.49781,-1.02582 1.42036,-0.47345 2.84072,-1.18363 4.18218,-2.05163 1.34145,-0.868 2.52509,-1.97273 3.62981,-3.23527 l -2.84072,-3.55091 c -0.23673,-0.31563 -0.39455,-0.47345 -0.71018,-0.63127 -0.31564,-0.15782 -0.71018,-0.23673 -1.10473,-0.23673 -0.63127,0 -1.18363,0.15782 -1.81491,0.55237 -0.63127,0.39454 -1.42036,0.71018 -2.28836,1.18363 -0.868,0.47346 -1.81491,0.868 -2.99854,1.26255 -1.10473,0.39454 -2.44618,0.55236 -4.02436,0.55236 -3.23527,0 -5.76036,-0.94691 -7.73308,-2.91963 -1.97273,-1.97273 -3.07746,-4.97127 -3.39309,-9.15345 h 25.01416 c 0.47345,0 0.78909,0 1.10472,-0.15782 0.31564,-0.15781 0.55236,-0.31563 0.71018,-0.63127 0.15782,-0.23673 0.23673,-0.63127 0.31564,-1.10472 0.0789,-0.47346 0.15782,-1.18364 0.15782,-1.89382 0,-2.91963 -0.47346,-5.44472 -1.34146,-7.73308 -0.868,-2.28837 -2.05163,-4.18218 -3.62981,-5.76036 -1.57818,-1.57818 -3.39309,-2.84073 -5.52363,-3.629817 -2.13054,-0.78909 -4.49782,-1.183635 -7.0229,-1.183635 z m 0.15781,6.943992 c 1.42037,0 2.68291,0.31564 3.78764,0.78909 1.10472,0.47346 1.97272,1.10473 2.6829,1.97273 0.71018,0.868 1.26255,1.8149 1.57818,2.91963 0.31564,1.10473 0.55237,2.28836 0.55237,3.55091 h -18.30689 c 0.47345,-2.91964 1.49927,-5.208 3.07745,-6.78618 1.57818,-1.57818 3.78763,-2.44618 6.62835,-2.44618 z"
           style="font-style:normal;font-variant:normal;font-weight:bold;font-stretch:normal;font-family:Aleo;-inkscape-font-specification:'Aleo Bold';fill:#811d16;fill-opacity:1;stroke-width:1.97272515"
           id="path884" />
        <path
           d="m 330.83176,130.04015 c -0.39455,-0.63127 -1.02582,-0.868 -1.81491,-0.868 -0.63127,0 -1.10473,0.15782 -1.57818,0.55237 -0.47346,0.39454 -1.10473,0.78909 -1.736,1.26254 -0.63127,0.47346 -1.49927,0.868 -2.44618,1.26255 -0.94691,0.39454 -2.20945,0.55236 -3.78763,0.55236 -1.57818,0 -2.91963,-0.31564 -4.18218,-0.868 -1.26254,-0.63127 -2.28836,-1.49927 -3.15636,-2.604 -0.868,-1.18363 -1.49927,-2.60399 -1.97272,-4.26108 -0.47346,-1.65709 -0.71019,-3.62982 -0.71019,-5.76036 0,-2.05164 0.23673,-3.86654 0.63128,-5.52363 0.39454,-1.65709 1.10472,-3.07745 1.97272,-4.26109 0.868,-1.18363 1.89382,-1.97272 3.15636,-2.604 1.26255,-0.63127 2.76182,-0.9469 4.49782,-0.9469 1.34145,0 3.15636,0.23672 5.20799,0.78909 0.31564,3.15636 0.55236,5.05017 0.63127,5.68144 0.23673,0.94691 0.78909,1.49928 1.81491,1.49928 h 3.23527 0.94691 0.31563 l 0.0789,-12.46763 c -5.20799,-1.972724 -9.46908,-2.919632 -12.78326,-2.919632 -3.15636,0 -5.99708,0.552363 -8.44326,1.578182 -2.44618,1.02582 -4.49782,2.44618 -6.1549,4.33999 -1.65709,1.89382 -2.91964,4.10327 -3.78764,6.62836 -0.868,2.52509 -1.26254,5.208 -1.26254,8.20654 0,3.31418 0.47345,6.31272 1.42036,8.91672 0.94691,2.60399 2.28836,4.73454 3.94545,6.54944 1.65709,1.81491 3.55091,3.15636 5.76036,4.10327 2.20945,0.94691 4.49781,1.34146 7.0229,1.34146 1.42036,0 2.91963,-0.0789 4.34,-0.31564 1.42036,-0.23673 2.84072,-0.55236 4.18217,-1.02582 1.34146,-0.55236 2.68291,-1.18363 3.94546,-2.05163 1.26254,-0.868 2.36727,-1.97273 3.47199,-3.23527 z"
           style="font-style:normal;font-variant:normal;font-weight:bold;font-stretch:normal;font-family:Aleo;-inkscape-font-specification:'Aleo Bold';fill:#811d16;fill-opacity:1;stroke-width:1.97272515"
           id="path886" />
        <path
           d="m 380.77993,132.56524 c -0.63128,-0.0789 -0.55237,-0.0789 -3.94545,-0.71018 V 99.18673 h -9.78472 -5.91818 v 4.65563 c 0,1.34146 0.63127,2.13055 1.97273,2.44618 0.63127,0.0789 0.63127,0.15782 3.94545,0.71018 v 21.46325 c -1.34145,1.34146 -2.68291,2.36727 -4.18218,3.07746 -1.49927,0.71018 -3.07745,1.10472 -4.73454,1.10472 -2.28836,0 -4.02436,-0.63127 -5.12909,-1.97272 -1.10472,-1.34146 -1.73599,-3.31418 -1.73599,-5.76036 V 99.18673 h -9.70581 -5.99709 v 4.65563 c 0,1.34146 0.63127,2.13055 1.97273,2.44618 0.63127,0.0789 0.63127,0.0789 4.02436,0.71018 v 17.91235 c 0,2.28836 0.31563,4.33999 0.868,6.23381 0.63127,1.89382 1.42036,3.472 2.60399,4.81345 1.18364,1.34145 2.604,2.52509 4.26109,3.23527 1.736,0.71018 3.70872,1.10473 5.91818,1.10473 1.34145,0 2.52509,-0.15782 3.70872,-0.39455 1.18364,-0.31564 2.28836,-0.71018 3.31418,-1.18363 1.02582,-0.47346 1.97272,-1.02582 2.84072,-1.736 0.868,-0.71018 1.736,-1.49927 2.604,-2.36727 l 0.71018,3.23527 c 0.39455,1.18363 1.18364,1.8149 2.44618,1.8149 h 5.99709 5.91817 v -4.65563 c 0,-1.34145 -0.63127,-2.13054 -1.97272,-2.44618 z"
           style="font-style:normal;font-variant:normal;font-weight:bold;font-stretch:normal;font-family:Aleo;-inkscape-font-specification:'Aleo Bold';fill:#811d16;fill-opacity:1;stroke-width:1.97272515"
           id="path888" />
        <path
           d="m 412.64807,98.476549 c -2.44618,0 -4.57672,0.710181 -6.54945,2.130541 -1.97273,1.42036 -3.62981,3.39309 -5.05018,5.91818 l -0.63127,-4.89236 c -0.15782,-0.868 -0.39454,-1.49927 -0.78909,-1.893817 -0.39454,-0.394545 -1.02582,-0.552363 -2.05163,-0.552363 h -5.76036 -5.91818 v 4.65563 c 0,1.34146 0.63127,2.13055 1.97273,2.44618 0.63127,0.0789 0.55236,0.0789 3.94545,0.71018 v 24.85634 c -3.39309,0.63127 -3.31418,0.63127 -3.94545,0.71018 -1.34146,0.31564 -1.97273,1.10473 -1.97273,2.44618 v 4.65563 h 5.91818 9.78472 5.91817 v -4.65563 c 0,-1.34145 -0.63127,-2.13054 -1.97272,-2.44618 -0.63128,-0.0789 -0.55237,-0.0789 -3.94545,-0.71018 v -17.35998 c 1.02581,-2.13054 2.20945,-3.86654 3.62981,-4.97127 1.42036,-1.10473 3.15636,-1.65709 5.208,-1.65709 1.10472,0 2.05163,0.15782 2.76181,0.31564 0.71018,0.15782 1.18364,0.23672 1.57818,0.23672 0.47346,0 0.868,-0.15781 1.10473,-0.31563 0.23672,-0.15782 0.39454,-0.47346 0.47345,-0.94691 l 1.26255,-7.338538 c -1.34146,-0.946908 -2.99855,-1.341453 -4.97127,-1.341453 z"
           style="font-style:normal;font-variant:normal;font-weight:bold;font-stretch:normal;font-family:Aleo;-inkscape-font-specification:'Aleo Bold';fill:#811d16;fill-opacity:1;stroke-width:1.97272515"
           id="path890" />
        <path
           d="m 439.83592,132.56524 c -0.0789,0 -0.23672,-0.0789 -0.47345,-0.0789 -0.23673,0 -0.63127,-0.15781 -1.18364,-0.23672 -0.55236,-0.0789 -1.42036,-0.23673 -2.36727,-0.39455 V 99.18673 h -9.7058 -5.99709 v 4.65563 c 0,1.34146 0.63127,2.13055 1.97273,2.44618 0.0789,0 0.23672,0.0789 0.47345,0.0789 0.23673,0 0.63127,0.15782 1.18364,0.23673 0.55236,0.0789 1.42036,0.23672 2.36727,0.39454 v 24.85634 c -0.94691,0.15782 -1.81491,0.31564 -2.36727,0.39455 -0.55237,0.0789 -0.94691,0.15781 -1.18364,0.23672 -0.23673,0 -0.39454,0.0789 -0.47345,0.0789 -1.34146,0.31564 -1.97273,1.10473 -1.97273,2.44618 v 4.65563 h 5.99709 9.7058 5.99709 v -4.65563 c 0,-1.34145 -0.63127,-2.13054 -1.97273,-2.44618 z m -2.52508,-45.214862 c 0,-0.867999 -0.23673,-1.657089 -0.55237,-2.446179 -0.31563,-0.78909 -0.78909,-1.420362 -1.34145,-1.972725 -0.55236,-0.552363 -1.18364,-0.946908 -1.97273,-1.262544 -0.78909,-0.315637 -1.57818,-0.552364 -2.44618,-0.552364 -0.86799,0 -1.65708,0.236727 -2.44617,0.552364 -0.78909,0.315636 -1.34146,0.710181 -1.89382,1.262544 -0.55236,0.552363 -1.02582,1.183635 -1.34145,1.972725 -0.31564,0.78909 -0.47346,1.57818 -0.47346,2.446179 0,0.868 0.15782,1.65709 0.47346,2.367271 0.31563,0.710181 0.78909,1.420362 1.34145,1.972725 0.55236,0.552363 1.10473,1.025817 1.89382,1.341453 0.78909,0.315636 1.57818,0.473454 2.44617,0.473454 0.868,0 1.65709,-0.157818 2.44618,-0.473454 0.78909,-0.315636 1.42037,-0.78909 1.97273,-1.341453 0.55236,-0.552363 1.02582,-1.262544 1.34145,-1.972725 0.31564,-0.710181 0.55237,-1.499271 0.55237,-2.367271 z"
           style="font-style:normal;font-variant:normal;font-weight:bold;font-stretch:normal;font-family:Aleo;-inkscape-font-specification:'Aleo Bold';fill:#811d16;fill-opacity:1;stroke-width:1.97272515"
           id="path892" />
        <path
           d="m 461.18451,140.29833 c 1.97272,0 3.86654,-0.31564 5.68145,-0.94691 1.8149,-0.63127 3.47199,-1.49927 4.89235,-2.68291 l -2.91963,-4.73454 c -0.23673,-0.31564 -0.39454,-0.47345 -0.55236,-0.63127 -0.15782,-0.15782 -0.47346,-0.15782 -0.78909,-0.15782 -0.23673,0 -0.39455,0 -0.63127,0.15782 -0.23673,0.15782 -0.55237,0.31563 -0.868,0.47345 -0.31564,0.15782 -0.63128,0.31564 -1.02582,0.47346 -0.39455,0.15781 -0.868,0.15781 -1.49927,0.15781 -1.02582,0 -1.89382,-0.31563 -2.52509,-1.02581 -0.63127,-0.71018 -0.94691,-1.65709 -0.94691,-2.91964 v -21.9367 h 10.65272 v -6.943995 h -10.65272 v -12.78326 h -5.05017 c -0.55237,0 -1.10473,0.157818 -1.49928,0.473454 -0.39454,0.315636 -0.63127,0.631272 -0.71018,1.183636 l -2.05163,11.047261 -6.54945,1.025814 v 3.94545 c 0,0.71019 0.23673,1.18364 0.63127,1.49928 0.39455,0.31563 0.78909,0.55236 1.34146,0.55236 h 4.10326 v 22.56798 c 0,3.47199 0.94691,6.23381 2.84073,8.20653 1.89382,1.97273 4.65563,2.99855 8.12763,2.99855 z"
           style="font-style:normal;font-variant:normal;font-weight:bold;font-stretch:normal;font-family:Aleo;-inkscape-font-specification:'Aleo Bold';fill:#811d16;fill-opacity:1;stroke-width:1.97272515"
           id="path894" />
        <path
           d="m 517.29252,99.18673 h -7.81199 -9.54799 v 4.65563 c 0,1.34146 0.63127,2.13055 1.97272,2.44618 0.47346,0.0789 0.63128,0.0789 2.68291,0.47346 l -5.91818,15.22943 c -0.31563,0.71019 -0.55236,1.42037 -0.78909,2.13055 -0.23672,0.71018 -0.47345,1.42036 -0.71018,2.20945 -0.15782,-0.71018 -0.31563,-1.49927 -0.55236,-2.20945 -0.23673,-0.71018 -0.39455,-1.42036 -0.71018,-2.13055 l -6.39163,-15.38725 c 1.26254,-0.23673 1.49927,-0.23673 1.89381,-0.31564 1.34146,-0.31563 1.97273,-1.10472 1.97273,-2.44618 v -4.65563 h -8.91672 -8.52217 -2.28836 v 4.65563 c 0,1.34146 0.63127,2.13055 1.97272,2.44618 0.63127,0.0789 0.39455,0.15782 3.70873,0.71018 l 13.01998,29.66979 -7.57526,16.17635 h 7.25963 c 0.94691,0 1.57818,-0.0789 2.05163,-0.47346 0.47346,-0.31563 0.868,-0.868 1.18364,-1.57818 l 18.70143,-43.7945 c 3.31418,-0.55236 3.07745,-0.63127 3.70873,-0.71018 1.34145,-0.31563 1.97272,-1.10472 1.97272,-2.44618 v -4.65563 z"
           style="font-style:normal;font-variant:normal;font-weight:bold;font-stretch:normal;font-family:Aleo;-inkscape-font-specification:'Aleo Bold';fill:#811d16;fill-opacity:1;stroke-width:1.97272515"
           id="path896" />
      </g>
      <g
         aria-label="Vagas"
         style="font-style:normal;font-weight:normal;font-size:64.55464172px;line-height:1.25;font-family:sans-serif;letter-spacing:0px;word-spacing:0px;fill:#811d16;fill-opacity:1;stroke:none;stroke-width:1.61386597"
         id="text27">
        <path
           d="m 358.75015,150.94928 h -2.64674 -4.32516 -8.263 v 3.80872 c 0,1.09743 0.51644,1.74298 1.61387,2.0012 0.0645,0 0.19366,0 0.32277,0.0645 0.12911,0.0646 0.38733,0.12911 0.7101,0.19366 0.32278,0.0646 0.64555,0.19367 1.03288,0.25822 l -9.23132,24.14344 c -0.7101,1.87208 -1.35564,4.06694 -1.87208,6.52002 -0.32277,-1.22654 -0.64555,-2.38852 -0.96832,-3.48595 -0.32277,-1.09743 -0.64555,-2.13031 -1.03288,-3.03407 l -9.29586,-24.14344 c 0.38732,-0.0645 0.7101,-0.19366 1.03287,-0.25822 0.32277,-0.0646 0.51644,-0.1291 0.64555,-0.19366 0.12911,-0.0645 0.25822,-0.0645 0.32277,-0.0645 1.09743,-0.25822 1.61387,-0.90377 1.61387,-2.0012 v -3.80872 h -8.19844 -4.32516 -2.64674 -2.25942 v 3.80872 c 0,1.09743 0.51644,1.74298 1.61387,2.0012 0.12911,0 0.19366,0 0.38733,0.0645 0.19366,0 0.51643,0.12911 0.96832,0.19366 0.45188,0.0646 1.03287,0.19367 1.80753,0.32278 l 16.33232,40.28209 h 7.81111 l 16.26777,-40.28209 c 0.77466,-0.12911 1.4202,-0.25822 1.87209,-0.32278 0.45188,-0.0646 0.7101,-0.19366 0.90376,-0.19366 0.19367,0 0.25822,-0.0645 0.38733,-0.0645 1.09743,-0.25822 1.61387,-0.90377 1.61387,-2.0012 v -3.80872 z"
           style="font-style:normal;font-variant:normal;font-weight:bold;font-stretch:normal;font-family:Aleo;-inkscape-font-specification:'Aleo Bold';fill:#811d16;fill-opacity:1;stroke-width:1.61386597"
           id="path899" />
        <path
           d="m 388.84169,191.74781 c -0.0646,0 -0.32277,-0.0645 -0.7101,-0.12911 -0.38733,-0.0645 -1.03288,-0.19366 -1.74298,-0.32277 v -14.6539 c 0,-1.87209 -0.25822,-3.61506 -0.77465,-5.16438 -0.51644,-1.54931 -1.42021,-2.90495 -2.45308,-4.06694 -1.03287,-1.09743 -2.32397,-2.00119 -3.80872,-2.64674 -1.54932,-0.64555 -3.29229,-0.96832 -5.22893,-0.96832 -5.35804,0 -9.94141,1.80753 -13.75014,5.29348 l 1.48476,2.51763 c 0.25822,0.38733 0.51644,0.77466 0.90376,1.03288 0.38733,0.25822 0.90377,0.38733 1.42021,0.38733 0.64554,0 1.22653,-0.12911 1.74297,-0.45189 0.51644,-0.32277 1.09743,-0.58099 1.74298,-0.96832 0.64554,-0.38732 1.4202,-0.7101 2.25941,-1.03287 0.83921,-0.32277 1.93664,-0.45188 3.22773,-0.45188 1.80753,0 3.16318,0.51643 4.06694,1.61386 0.90377,1.09743 1.4202,2.7113 1.4202,4.97071 v 1.93664 c -3.74416,0 -6.9719,0.32277 -9.48953,0.96832 -2.51763,0.64555 -4.51882,1.48476 -6.06813,2.45308 -1.54932,0.96831 -2.64674,2.06574 -3.29229,3.29228 -0.64555,1.22654 -0.96832,2.51763 -0.96832,3.74417 0,1.48476 0.25822,2.77585 0.7101,3.87328 0.45188,1.09743 1.16198,2.06575 2.00119,2.8404 0.83922,0.77466 1.87209,1.2911 3.03407,1.67842 1.16199,0.38733 2.45308,0.581 3.87328,0.581 1.16199,0 2.25941,-0.12911 3.22773,-0.32278 0.96832,-0.19366 1.87209,-0.45188 2.7113,-0.83921 0.83921,-0.38732 1.74297,-0.83921 2.51763,-1.4202 0.83921,-0.58099 1.61387,-1.22654 2.45308,-2.00119 l 0.7101,2.32396 c 0.19366,0.71011 0.51643,1.22654 0.96832,1.42021 0.45188,0.25821 1.03287,0.32277 1.80753,0.32277 h 2.71129 0.83921 4.06694 v -3.80872 c 0,-1.09743 -0.51643,-1.74298 -1.61386,-2.0012 z m -10.19964,-2.71129 c -0.58099,0.58099 -1.16198,1.09743 -1.74297,1.54931 -0.58099,0.45188 -1.16198,0.77465 -1.74298,1.09743 -0.58099,0.32277 -1.29109,0.58099 -2.00119,0.7101 -0.7101,0.12911 -1.4202,0.19366 -2.25941,0.19366 -1.35565,0 -2.38852,-0.32277 -3.22773,-0.90376 -0.83921,-0.58099 -1.22654,-1.61387 -1.22654,-3.03407 0,-0.7101 0.19366,-1.4202 0.58099,-2.0012 0.38733,-0.58099 1.03287,-1.09742 2.00119,-1.54931 0.96832,-0.45188 2.25942,-0.83921 3.80873,-1.16198 1.54931,-0.32277 3.48595,-0.45188 5.80991,-0.45188 z"
           style="font-style:normal;font-variant:normal;font-weight:bold;font-stretch:normal;font-family:Aleo;-inkscape-font-specification:'Aleo Bold';fill:#811d16;fill-opacity:1;stroke-width:1.61386597"
           id="path901" />
        <path
           d="m 407.07736,163.92476 c -1.87208,0 -3.67961,0.25822 -5.29348,0.77466 -1.61386,0.51643 -2.96951,1.22653 -4.13149,2.1303 -1.16199,0.90376 -2.13031,2.06575 -2.77585,3.35684 -0.64555,1.29109 -0.96832,2.84041 -0.96832,4.45427 0,2.0012 0.45188,3.80873 1.4202,5.29348 0.96832,1.48476 2.32397,2.7113 4.00239,3.61506 -0.7101,0.38733 -1.42021,0.77466 -1.93664,1.22654 -0.51644,0.45188 -0.96832,0.96832 -1.35565,1.48476 -0.38733,0.51643 -0.58099,1.03287 -0.77466,1.54931 -0.19366,0.51644 -0.25821,1.03287 -0.25821,1.54931 0,1.22654 0.25821,2.19486 0.77465,2.96951 0.51644,0.77466 1.09743,1.35565 1.93664,1.80753 -1.67842,0.64555 -2.96951,1.42021 -3.93783,2.45308 -0.96832,1.03287 -1.42021,2.38852 -1.42021,3.93783 0,1.16199 0.32278,2.25942 0.90377,3.29229 0.58099,1.03287 1.48476,2.00119 2.71129,2.77585 1.22654,0.77465 2.7113,1.4202 4.58338,1.93664 1.87209,0.51644 4.06695,0.7101 6.58458,0.7101 2.51763,0 4.77704,-0.32277 6.77824,-0.96832 2.00119,-0.64555 3.67961,-1.48476 5.03526,-2.58219 1.35564,-1.09742 2.38852,-2.32396 3.09862,-3.67961 0.7101,-1.35565 1.09743,-2.77585 1.09743,-4.26061 0,-1.54931 -0.25822,-2.8404 -0.90377,-3.87328 -0.64554,-1.03287 -1.4202,-1.74297 -2.45307,-2.32396 -1.03288,-0.58099 -2.06575,-1.03288 -3.35684,-1.2911 -1.2911,-0.25821 -2.58219,-0.45188 -3.93784,-0.58099 -1.35564,-0.12911 -2.58218,-0.12911 -3.87328,-0.19366 -1.29109,0 -2.38852,-0.12911 -3.42139,-0.25822 -1.03288,-0.12911 -1.80753,-0.32277 -2.45308,-0.64555 -0.64554,-0.32277 -0.90376,-0.83921 -0.90376,-1.48475 0,-0.77466 0.51643,-1.4202 1.54931,-2.06575 1.16198,0.25822 2.45307,0.32277 3.67961,0.32277 1.87209,0 3.55051,-0.25822 5.09982,-0.77465 1.54931,-0.51644 2.96951,-1.22654 4.1315,-2.13031 1.16198,-0.90376 2.06575,-2.06575 2.71129,-3.35684 0.64555,-1.29109 0.96832,-2.8404 0.96832,-4.45427 0,-0.7101 -0.0645,-1.29109 -0.19366,-1.93664 -0.12911,-0.64554 -0.25822,-1.22654 -0.45188,-1.80753 l 2.96951,-0.51643 c 0.64554,-0.12911 1.03287,-0.32278 1.29109,-0.581 0.25822,-0.25822 0.38733,-0.64554 0.38733,-1.16198 v -2.96951 h -9.48953 c -1.03288,-0.581 -2.19486,-1.03288 -3.4214,-1.2911 -1.22654,-0.25822 -2.58218,-0.45188 -4.00239,-0.45188 z m 8.71488,35.18228 c 0,0.64555 -0.12911,1.29109 -0.45188,1.80753 -0.32278,0.51644 -0.83921,1.03287 -1.54931,1.4202 -0.71011,0.38733 -1.54932,0.64555 -2.64674,0.90377 -1.09743,0.25822 -2.38853,0.38733 -3.87328,0.38733 -1.48476,0 -2.64674,-0.12911 -3.67962,-0.32278 -1.03287,-0.19366 -1.87208,-0.45188 -2.51763,-0.83921 -0.64555,-0.38733 -1.09743,-0.83921 -1.35565,-1.35565 -0.25821,-0.51643 -0.45188,-1.03287 -0.45188,-1.61386 0,-0.90377 0.32277,-1.67842 0.83921,-2.32397 0.51644,-0.64554 1.29109,-1.22654 2.19486,-1.74297 0.96832,0.12911 2.00119,0.19366 3.03407,0.25821 1.03287,0.0646 2.06575,0.0646 3.09862,0.12911 1.03287,0.0646 1.93664,0.12911 2.8404,0.25822 0.90377,0.12911 1.74298,0.25822 2.38853,0.51644 0.64554,0.25822 1.16198,0.58099 1.54931,0.96832 0.38733,0.38733 0.58099,0.90376 0.58099,1.54931 z m -8.71488,-18.84995 c -0.96832,0 -1.80753,-0.12911 -2.58218,-0.38733 -0.77466,-0.25822 -1.35565,-0.64555 -1.87209,-1.16199 -0.51643,-0.51643 -0.83921,-1.03287 -1.09743,-1.67842 -0.25821,-0.64554 -0.32277,-1.4202 -0.32277,-2.19485 0,-1.61387 0.45188,-2.90496 1.4202,-3.87328 0.96832,-0.96832 2.51763,-1.42021 4.45427,-1.42021 1.93664,0 3.4214,0.45189 4.38972,1.42021 0.96832,0.96832 1.48476,2.25941 1.48476,3.87328 0,0.77465 -0.12911,1.54931 -0.38733,2.19485 -0.25822,0.64555 -0.58099,1.2911 -1.09743,1.74298 -0.45188,0.45188 -1.09743,0.83921 -1.80753,1.09743 -0.7101,0.25822 -1.61387,0.38733 -2.58219,0.38733 z"
           style="font-style:normal;font-variant:normal;font-weight:bold;font-stretch:normal;font-family:Aleo;-inkscape-font-specification:'Aleo Bold';fill:#811d16;fill-opacity:1;stroke-width:1.61386597"
           id="path903" />
        <path
           d="m 455.79192,191.74781 c -0.0646,0 -0.32278,-0.0645 -0.7101,-0.12911 -0.38733,-0.0645 -1.03288,-0.19366 -1.74298,-0.32277 v -14.6539 c 0,-1.87209 -0.25822,-3.61506 -0.77465,-5.16438 -0.51644,-1.54931 -1.42021,-2.90495 -2.45308,-4.06694 -1.03287,-1.09743 -2.32397,-2.00119 -3.80872,-2.64674 -1.54932,-0.64555 -3.29229,-0.96832 -5.22893,-0.96832 -5.35804,0 -9.94142,1.80753 -13.75014,5.29348 l 1.48476,2.51763 c 0.25822,0.38733 0.51643,0.77466 0.90376,1.03288 0.38733,0.25822 0.90377,0.38733 1.4202,0.38733 0.64555,0 1.22654,-0.12911 1.74298,-0.45189 0.51644,-0.32277 1.09743,-0.58099 1.74298,-0.96832 0.64554,-0.38732 1.4202,-0.7101 2.25941,-1.03287 0.83921,-0.32277 1.93664,-0.45188 3.22773,-0.45188 1.80753,0 3.16318,0.51643 4.06694,1.61386 0.90377,1.09743 1.4202,2.7113 1.4202,4.97071 v 1.93664 c -3.74416,0 -6.9719,0.32277 -9.48953,0.96832 -2.51763,0.64555 -4.51882,1.48476 -6.06813,2.45308 -1.54932,0.96831 -2.64674,2.06574 -3.29229,3.29228 -0.64555,1.22654 -0.96832,2.51763 -0.96832,3.74417 0,1.48476 0.25822,2.77585 0.7101,3.87328 0.45188,1.09743 1.16198,2.06575 2.00119,2.8404 0.83921,0.77466 1.87209,1.2911 3.03407,1.67842 1.16199,0.38733 2.45308,0.581 3.87328,0.581 1.16198,0 2.25941,-0.12911 3.22773,-0.32278 0.96832,-0.19366 1.87209,-0.45188 2.7113,-0.83921 0.83921,-0.38732 1.74297,-0.83921 2.51763,-1.4202 0.83921,-0.58099 1.61387,-1.22654 2.45308,-2.00119 l 0.7101,2.32396 c 0.19366,0.71011 0.51643,1.22654 0.96832,1.42021 0.45188,0.25821 1.03287,0.32277 1.80753,0.32277 h 2.71129 0.83921 4.06694 v -3.80872 c 0,-1.09743 -0.51643,-1.74298 -1.61386,-2.0012 z m -10.19964,-2.71129 c -0.58099,0.58099 -1.16198,1.09743 -1.74297,1.54931 -0.58099,0.45188 -1.16198,0.77465 -1.74298,1.09743 -0.58099,0.32277 -1.29109,0.58099 -2.00119,0.7101 -0.7101,0.12911 -1.4202,0.19366 -2.25941,0.19366 -1.35565,0 -2.38852,-0.32277 -3.22773,-0.90376 -0.83921,-0.58099 -1.22654,-1.61387 -1.22654,-3.03407 0,-0.7101 0.19366,-1.4202 0.58099,-2.0012 0.38733,-0.58099 1.03287,-1.09742 2.00119,-1.54931 0.96832,-0.45188 2.25942,-0.83921 3.80873,-1.16198 1.54931,-0.32277 3.48595,-0.45188 5.80991,-0.45188 z"
           style="font-style:normal;font-variant:normal;font-weight:bold;font-stretch:normal;font-family:Aleo;-inkscape-font-specification:'Aleo Bold';fill:#811d16;fill-opacity:1;stroke-width:1.61386597"
           id="path905" />
        <path
           d="m 483.00068,183.67848 c -0.45188,-0.96832 -1.03287,-1.74297 -1.80753,-2.38852 -0.77465,-0.7101 -1.61386,-1.22654 -2.58218,-1.67842 -0.96832,-0.45188 -2.0012,-0.90377 -3.03407,-1.22654 -1.03287,-0.32277 -2.00119,-0.64555 -2.96951,-0.90376 -0.96832,-0.25822 -1.80753,-0.64555 -2.58219,-1.03288 -0.77465,-0.38733 -1.35565,-0.7101 -1.80753,-1.22654 -0.45188,-0.51643 -0.7101,-1.09743 -0.7101,-1.80753 0,-1.09743 0.45188,-2.00119 1.35565,-2.64674 0.90376,-0.64554 2.1303,-0.96832 3.67961,-0.96832 1.48476,0 3.03407,0.19367 3.87328,0.45189 0.25822,2.51763 0.38733,3.29228 0.45188,3.61506 0.19367,0.77465 0.64555,1.22653 1.48476,1.22653 h 2.64674 0.77466 0.25821 v -9.36042 h 0.0646 c -4.64794,-1.4202 -6.45547,-1.74297 -9.6832,-1.74297 -2.06575,0 -3.80872,0.32277 -5.35803,0.83921 -1.54931,0.51643 -2.90496,1.29109 -3.93784,2.19485 -1.03287,0.90377 -1.87208,2.0012 -2.38852,3.22774 -0.51643,1.22653 -0.77465,2.51763 -0.77465,3.87327 0,1.48476 0.25822,2.7113 0.7101,3.74417 0.45188,1.03288 1.03287,1.87209 1.80753,2.58219 0.77465,0.7101 1.67842,1.29109 2.64674,1.74297 0.96832,0.45189 1.93664,0.90377 2.96951,1.22654 1.03288,0.32278 2.06575,0.64555 3.03407,0.96832 0.96832,0.25822 1.80753,0.58099 2.58219,0.96832 0.77465,0.38733 1.4202,0.77466 1.87208,1.29109 0.45188,0.51644 0.64555,1.09743 0.64555,1.87209 0,0.51644 -0.0646,1.03287 -0.25822,1.54931 -0.19367,0.51644 -0.51644,0.83921 -0.96832,1.22654 -0.45188,0.38733 -0.96832,0.64555 -1.67842,0.90376 -0.64555,0.19367 -1.48476,0.32278 -2.45308,0.32278 -1.4202,0 -3.48595,0 -5.22892,-0.51644 -0.25822,-2.58219 -0.38733,-3.48595 -0.45189,-3.80872 -0.19366,-0.77466 -0.64554,-1.22654 -1.48475,-1.22654 h -2.64674 -0.77466 -0.32277 v 6.13269 3.22773 c 2.38852,0.90377 6.39091,1.80753 10.5224,1.80753 2.13031,0 4.06695,-0.25822 5.68081,-0.83921 1.67842,-0.51644 3.03407,-1.29109 4.1315,-2.25941 1.09743,-0.96832 1.93664,-2.1303 2.51763,-3.48595 0.58099,-1.35565 0.90377,-2.84041 0.90377,-4.45427 0,-1.35565 -0.25822,-2.45308 -0.71011,-3.4214 z"
           style="font-style:normal;font-variant:normal;font-weight:bold;font-stretch:normal;font-family:Aleo;-inkscape-font-specification:'Aleo Bold';fill:#811d16;fill-opacity:1;stroke-width:1.61386597"
           id="path907" />
      </g>
    </g>
    <g
       aria-label="Ache sua vaga aqui"
       style="font-style:normal;font-weight:normal;font-size:19.11288452px;line-height:1.25;font-family:sans-serif;letter-spacing:0px;word-spacing:0px;fill:#eeb14e;fill-opacity:1;stroke:none;stroke-width:0.47782212"
       id="text44">
      <path
         d="m 304.00186,228.15421 -0.76452,-0.22935 -4.95023,-12.38515 h -1.87307 l -4.96935,12.38515 -0.76451,0.22935 c -0.15291,0.0382 -0.24847,0.13379 -0.24847,0.30581 v 0.76451 h 3.91814 v -0.76451 c 0,-0.17202 -0.0765,-0.26758 -0.24847,-0.30581 l -0.78362,-0.22935 1.07032,-2.75226 h 5.90588 l 1.07032,2.75226 -0.78363,0.22935 c -0.17201,0.0382 -0.26758,0.13379 -0.26758,0.30581 v 0.76451 h 3.93726 v -0.76451 c 0,-0.17202 -0.0956,-0.26758 -0.24847,-0.30581 z m -9.09773,-4.31951 2.04507,-5.25604 c 0.11468,-0.30581 0.22936,-0.72629 0.38226,-1.29968 0.13379,0.51605 0.26758,0.93653 0.42048,1.28056 l 2.02597,5.27516 z"
         style="font-style:normal;font-variant:normal;font-weight:normal;font-stretch:normal;font-family:Aleo;-inkscape-font-specification:Aleo;fill:#eeb14e;fill-opacity:1;stroke-width:0.47782212"
         id="path851" />
      <path
         d="m 312.95595,227.86752 -0.45871,-0.63073 c -0.0765,-0.11467 -0.17202,-0.1529 -0.30581,-0.1529 -0.13379,0 -0.26758,0.0382 -0.38226,0.1529 -0.61161,0.53516 -1.31879,0.80274 -2.12153,0.80274 -0.87919,0 -1.54814,-0.32491 -2.04508,-0.95564 -0.49693,-0.64984 -0.76451,-1.56726 -0.76451,-2.71403 0,-1.14677 0.22935,-2.02597 0.72629,-2.6758 0.24847,-0.30581 0.55427,-0.55428 0.8983,-0.70718 0.34404,-0.1529 0.70718,-0.24847 1.05121,-0.24847 0.34403,0 0.68807,0.0191 1.07032,0.0765 0.15291,0.0382 0.38226,0.0765 0.68807,0.17202 0,0.0191 0.0191,0.21024 0.0573,0.63073 0.0382,0.42048 0.0573,0.64983 0.0765,0.72628 0.0382,0.19113 0.13379,0.26759 0.32492,0.26759 h 0.76451 v -2.52291 c -1.185,-0.4587 -2.14064,-0.68806 -2.86693,-0.68806 -1.43347,0 -2.58024,0.45871 -3.40209,1.39524 -0.78363,0.91742 -1.16589,2.08331 -1.16589,3.57411 0,1.52903 0.42048,2.75226 1.24234,3.66967 0.78363,0.8792 1.7775,1.31879 3.01983,1.31879 1.56726,0 2.79048,-0.49693 3.59323,-1.4908 z"
         style="font-style:normal;font-variant:normal;font-weight:normal;font-stretch:normal;font-family:Aleo;-inkscape-font-specification:Aleo;fill:#eeb14e;fill-opacity:1;stroke-width:0.47782212"
         id="path853" />
      <path
         d="m 317.10583,220.85309 v -5.69564 h -3.28741 v 0.80274 c 0,0.19113 0.11467,0.32492 0.3058,0.36315 0.11468,0.0382 0.53516,0.11467 1.26145,0.22935 v 11.29572 l -1.07032,0.21024 c -0.19113,0.0382 -0.30581,0.17201 -0.30581,0.36314 v 0.80274 h 4.47242 v -0.80274 c 0,-0.19113 -0.11468,-0.32492 -0.30581,-0.36314 -0.0765,-0.0191 -0.34403,-0.0764 -0.84096,-0.17202 l -0.22936,-0.0382 v -5.73387 c 0.80274,-0.89831 1.64371,-1.35701 2.59935,-1.35701 1.35702,0 2.04508,0.78362 2.04508,2.31265 v 6.15435 h 3.07718 v -0.80274 c 0,-0.19113 -0.0956,-0.32492 -0.2867,-0.36314 -0.11467,-0.0382 -0.47782,-0.11468 -1.08943,-0.22936 v -4.75911 c 0,-1.10854 -0.28669,-2.02596 -0.84097,-2.6758 -0.57338,-0.66895 -1.37612,-0.99387 -2.40822,-0.99387 -1.16589,0 -2.17887,0.49694 -3.09629,1.45258 z"
         style="font-style:normal;font-variant:normal;font-weight:normal;font-stretch:normal;font-family:Aleo;-inkscape-font-specification:Aleo;fill:#eeb14e;fill-opacity:1;stroke-width:0.47782212"
         id="path855" />
      <path
         d="m 330.23638,219.40051 c -0.68806,0 -1.31879,0.11468 -1.89217,0.36315 -0.57339,0.24846 -1.05121,0.59249 -1.43347,1.01298 -0.38226,0.42048 -0.68806,0.95564 -0.8983,1.52903 -0.21025,0.57339 -0.32492,1.185 -0.32492,1.87306 0,0.84097 0.11467,1.56726 0.34403,2.2171 0.22935,0.64983 0.53516,1.185 0.95564,1.62459 0.42049,0.4396 0.89831,0.78363 1.4717,1.01298 0.57338,0.22936 1.18499,0.34404 1.85395,0.34404 0.34403,0 0.70717,-0.0382 1.0512,-0.0956 0.34404,-0.0573 0.68807,-0.1529 1.0321,-0.26758 0.34403,-0.11468 0.63073,-0.28669 0.93653,-0.47782 0.30581,-0.19113 0.55427,-0.38226 0.76452,-0.64984 l -0.47783,-0.63072 c -0.0764,-0.11468 -0.17201,-0.17202 -0.32491,-0.17202 -0.11468,0 -0.22936,0.0573 -0.38226,0.1529 -0.15291,0.0956 -0.34403,0.19113 -0.57339,0.30581 -0.22935,0.11468 -0.49693,0.22935 -0.80274,0.32492 -0.30581,0.0956 -0.68806,0.13379 -1.10855,0.13379 -0.45871,0 -0.84096,-0.0764 -1.22322,-0.22936 -0.38226,-0.1529 -0.68807,-0.38225 -0.95565,-0.68806 -0.26758,-0.30581 -0.49693,-0.64984 -0.64983,-1.10855 -0.15291,-0.45871 -0.22936,-0.99387 -0.22936,-1.60548 h 6.42193 c 0.1529,0 0.28669,-0.0573 0.34403,-0.13379 0.0573,-0.0765 0.0765,-0.26758 0.0765,-0.53516 0,-0.68806 -0.11467,-1.29968 -0.3058,-1.83484 -0.19113,-0.53516 -0.49694,-0.99387 -0.84097,-1.35701 -0.34403,-0.36315 -0.76451,-0.63073 -1.26145,-0.82186 -0.49693,-0.19113 -1.0321,-0.28669 -1.60548,-0.28669 z m 0,1.26145 c 0.38226,0 0.74541,0.0573 1.05121,0.19113 0.30581,0.13379 0.57339,0.32492 0.78363,0.55427 0.21024,0.22936 0.34403,0.53516 0.45871,0.86008 0.11468,0.32492 0.17202,0.68807 0.17202,1.07032 h -5.25605 c 0.11468,-0.84096 0.42049,-1.50991 0.8792,-1.98774 0.4587,-0.47782 1.10854,-0.70717 1.9304,-0.70717 z"
         style="font-style:normal;font-variant:normal;font-weight:normal;font-stretch:normal;font-family:Aleo;-inkscape-font-specification:Aleo;fill:#eeb14e;fill-opacity:1;stroke-width:0.47782212"
         id="path857" />
      <path
         d="m 343.25285,219.40051 c -1.185,0 -2.06419,0.26758 -2.71403,0.84097 -0.61161,0.53516 -0.91741,1.16588 -0.91741,1.94951 0,0.76452 0.26758,1.35702 0.80274,1.79661 0.22935,0.19113 0.51604,0.38226 0.86008,0.53516 0.34403,0.15291 0.93653,0.34404 1.77749,0.61162 0.30581,0.0764 0.57339,0.19112 0.80275,0.3058 0.22935,0.11468 0.42048,0.2867 0.57338,0.45871 0.15291,0.17202 0.22936,0.4396 0.22936,0.80274 0,0.36315 -0.17202,0.68807 -0.49694,0.97476 -0.36314,0.30581 -0.86008,0.47782 -1.4908,0.47782 -0.76452,0 -1.43347,-0.11468 -1.96863,-0.38226 -0.0765,-0.76451 -0.11468,-1.16588 -0.11468,-1.22322 -0.0382,-0.1529 -0.13379,-0.22936 -0.28669,-0.22936 h -0.68806 v 2.52291 c 1.03209,0.34403 2.10241,0.51604 3.13451,0.51604 1.03209,0 1.91129,-0.32492 2.56113,-0.8983 0.63072,-0.55428 0.93653,-1.29968 0.93653,-2.2171 0,-0.70717 -0.24847,-1.26145 -0.78363,-1.68193 -0.22936,-0.19113 -0.49694,-0.38226 -0.80274,-0.49694 l -0.91742,-0.34403 c -0.30581,-0.11467 -0.70718,-0.21024 -1.185,-0.36314 -0.47782,-0.15291 -0.84097,-0.36315 -1.10855,-0.66895 -0.1529,-0.15291 -0.22935,-0.40137 -0.22935,-0.72629 0,-0.32492 0.17201,-0.61162 0.51605,-0.8792 0.34403,-0.26758 0.78362,-0.42048 1.31878,-0.42048 h 0.0191 c 0.42048,0 0.91742,0.0764 1.4908,0.21024 0.0765,0.80274 0.11468,1.22323 0.11468,1.26145 0.0382,0.19113 0.13379,0.26758 0.32492,0.26758 h 0.7454 v -1.81572 -0.66895 c -1.01298,-0.34403 -1.85395,-0.51605 -2.5229,-0.51605 z"
         style="font-style:normal;font-variant:normal;font-weight:normal;font-stretch:normal;font-family:Aleo;-inkscape-font-specification:Aleo;fill:#eeb14e;fill-opacity:1;stroke-width:0.47782212"
         id="path859" />
      <path
         d="m 352.04777,228.02042 c -0.68806,0 -1.185,-0.19113 -1.52903,-0.5925 -0.34403,-0.40137 -0.49694,-0.99387 -0.49694,-1.72016 v -6.15435 h -3.09628 v 0.80274 c 0,0.19113 0.11467,0.32492 0.3058,0.36315 0.11468,0.0382 0.45871,0.11468 1.07032,0.22935 v 4.77823 c 0,1.14677 0.30581,2.00685 0.84097,2.65669 0.57339,0.66895 1.37613,1.01298 2.40822,1.01298 1.22323,0 2.29355,-0.51605 3.21097,-1.54814 l 0.13379,1.03209 c 0.0764,0.22936 0.22935,0.36315 0.45871,0.36315 h 2.38911 v -0.82186 c 0,-0.19113 -0.0956,-0.3058 -0.28669,-0.34403 -0.11468,-0.0382 -0.47783,-0.11468 -1.08944,-0.22935 v -8.295 h -1.70105 -1.37612 v 0.82186 c 0,0.19113 0.0956,0.32492 0.28669,0.36314 0.61161,0.11468 0.97476,0.19113 1.08943,0.22936 v 5.73386 c -0.78362,0.8792 -1.66282,1.3379 -2.61846,1.3379 z"
         style="font-style:normal;font-variant:normal;font-weight:normal;font-stretch:normal;font-family:Aleo;-inkscape-font-specification:Aleo;fill:#eeb14e;fill-opacity:1;stroke-width:0.47782212"
         id="path861" />
      <path
         d="m 367.25147,228.03953 c -0.11468,-0.0382 -0.68807,-0.1529 -0.95565,-0.21024 v -4.83556 c 0,-0.53516 -0.0573,-1.03209 -0.21024,-1.4908 -0.1529,-0.45871 -0.36314,-0.84097 -0.64984,-1.14678 -0.28669,-0.3058 -0.63072,-0.53516 -1.0512,-0.72628 -0.42049,-0.19113 -0.91742,-0.26759 -1.45258,-0.26759 -0.76452,0 -1.45258,0.11468 -2.0642,0.38226 -0.61161,0.26758 -1.18499,0.63073 -1.72016,1.14678 l 0.30581,0.53516 c 0.0382,0.0764 0.11468,0.17201 0.19113,0.22935 0.0764,0.0573 0.19113,0.0764 0.30581,0.0764 0.1529,0 0.28669,-0.0382 0.43959,-0.1529 0.15291,-0.11468 0.34403,-0.21024 0.55428,-0.34403 0.21024,-0.13379 0.43959,-0.22936 0.72629,-0.34403 0.28669,-0.11468 0.63072,-0.17202 1.0512,-0.17202 0.63073,0 1.10855,0.21024 1.43347,0.5925 0.32492,0.38226 0.49694,0.95564 0.49694,1.72016 v 0.7454 c -1.10855,0 -2.02597,0.0765 -2.79049,0.24847 -0.76451,0.17201 -1.37612,0.42048 -1.83483,0.68806 -0.45871,0.26758 -0.82186,0.61161 -1.0321,0.95565 -0.21024,0.34403 -0.3058,0.72629 -0.3058,1.10854 0,0.4396 0.0573,0.82186 0.21024,1.14678 0.1529,0.32492 0.34403,0.5925 0.57338,0.80274 0.22936,0.21024 0.53516,0.34403 0.86008,0.45871 0.32492,0.11467 0.64984,0.17201 1.0321,0.17201 0.38226,0 0.72629,-0.0191 1.0321,-0.0956 0.3058,-0.0764 0.57338,-0.17202 0.84096,-0.28669 0.26758,-0.11468 0.53516,-0.26758 0.76452,-0.45871 0.22935,-0.19113 0.49693,-0.40137 0.76451,-0.63073 l 0.19113,0.91742 c 0.0382,0.1529 0.0765,0.26758 0.19113,0.30581 0.11468,0.0382 0.24847,0.0764 0.40137,0.0764 h 0.61161 0.13379 1.24234 v -0.82186 c 0,-0.17201 -0.11468,-0.32492 -0.28669,-0.36314 z m -2.63758,-1.18499 c -0.19113,0.19112 -0.38226,0.38225 -0.57339,0.53516 -0.19113,0.1529 -0.40137,0.3058 -0.63072,0.42048 -0.22936,0.11468 -0.45871,0.19113 -0.70718,0.24847 -0.24847,0.0573 -0.49693,0.0956 -0.80274,0.0956 -0.22935,0 -0.4396,-0.0382 -0.63072,-0.0956 -0.19113,-0.0573 -0.34404,-0.13379 -0.49694,-0.24847 -0.1529,-0.11468 -0.26758,-0.26758 -0.34403,-0.45871 -0.0765,-0.19113 -0.13379,-0.38226 -0.13379,-0.64984 0,-0.26758 0.0765,-0.49693 0.22935,-0.72629 0.15291,-0.22935 0.42049,-0.42048 0.76452,-0.57338 0.34403,-0.15291 0.80274,-0.30581 1.3379,-0.40137 0.53516,-0.0956 1.20411,-0.13379 1.98774,-0.13379 z"
         style="font-style:normal;font-variant:normal;font-weight:normal;font-stretch:normal;font-family:Aleo;-inkscape-font-specification:Aleo;fill:#eeb14e;fill-opacity:1;stroke-width:0.47782212"
         id="path863" />
      <path
         d="m 382.53252,219.55341 h -3.63145 v 0.80274 c 0,0.19113 0.0956,0.32492 0.28669,0.36315 0.57339,0.11468 0.93653,0.17202 1.08944,0.21024 l -2.0642,5.19871 c -0.11467,0.3058 -0.22935,0.76451 -0.38225,1.37612 -0.11468,-0.61161 -0.22936,-1.08943 -0.34403,-1.37612 l -2.04508,-5.19871 c 0.5925,-0.11468 0.93653,-0.1529 1.05121,-0.19113 0.19112,-0.0382 0.28669,-0.17201 0.28669,-0.36314 v -0.82186 h -4.33863 v 0.82186 c 0,0.19113 0.0956,0.32492 0.2867,0.36314 0.0382,0 0.17201,0.0382 0.42048,0.0765 0.24847,0.0382 0.40137,0.0765 0.51605,0.11468 l 3.38298,8.31411 h 1.54814 l 3.38298,-8.31411 c 0.55428,-0.11468 0.86008,-0.19113 0.93653,-0.19113 0.19113,-0.0382 0.2867,-0.1529 0.2867,-0.34403 v -0.84097 z"
         style="font-style:normal;font-variant:normal;font-weight:normal;font-stretch:normal;font-family:Aleo;-inkscape-font-specification:Aleo;fill:#eeb14e;fill-opacity:1;stroke-width:0.47782212"
         id="path865" />
      <path
         d="m 392.07582,228.03953 c -0.11467,-0.0382 -0.68806,-0.1529 -0.95564,-0.21024 v -4.83556 c 0,-0.53516 -0.0573,-1.03209 -0.21024,-1.4908 -0.1529,-0.45871 -0.36315,-0.84097 -0.64984,-1.14678 -0.28669,-0.3058 -0.63073,-0.53516 -1.05121,-0.72628 -0.42048,-0.19113 -0.91742,-0.26759 -1.45258,-0.26759 -0.76451,0 -1.45258,0.11468 -2.06419,0.38226 -0.61161,0.26758 -1.185,0.63073 -1.72016,1.14678 l 0.30581,0.53516 c 0.0382,0.0764 0.11467,0.17201 0.19113,0.22935 0.0764,0.0573 0.19112,0.0764 0.3058,0.0764 0.15291,0 0.2867,-0.0382 0.4396,-0.1529 0.1529,-0.11468 0.34403,-0.21024 0.55427,-0.34403 0.21024,-0.13379 0.4396,-0.22936 0.72629,-0.34403 0.2867,-0.11468 0.63073,-0.17202 1.05121,-0.17202 0.63073,0 1.10855,0.21024 1.43347,0.5925 0.32492,0.38226 0.49693,0.95564 0.49693,1.72016 v 0.7454 c -1.10855,0 -2.02596,0.0765 -2.79048,0.24847 -0.76451,0.17201 -1.37613,0.42048 -1.83484,0.68806 -0.45871,0.26758 -0.82185,0.61161 -1.03209,0.95565 -0.21024,0.34403 -0.30581,0.72629 -0.30581,1.10854 0,0.4396 0.0573,0.82186 0.21024,1.14678 0.15291,0.32492 0.34404,0.5925 0.57339,0.80274 0.22935,0.21024 0.53516,0.34403 0.86008,0.45871 0.32492,0.11467 0.64984,0.17201 1.0321,0.17201 0.38225,0 0.72629,-0.0191 1.03209,-0.0956 0.30581,-0.0764 0.57339,-0.17202 0.84097,-0.28669 0.26758,-0.11468 0.53516,-0.26758 0.76451,-0.45871 0.22936,-0.19113 0.49694,-0.40137 0.76452,-0.63073 l 0.19113,0.91742 c 0.0382,0.1529 0.0764,0.26758 0.19113,0.30581 0.11467,0.0382 0.24846,0.0764 0.40137,0.0764 h 0.61161 0.13379 1.24234 v -0.82186 c 0,-0.17201 -0.11468,-0.32492 -0.2867,-0.36314 z m -2.63757,-1.18499 c -0.19113,0.19112 -0.38226,0.38225 -0.57339,0.53516 -0.19113,0.1529 -0.40137,0.3058 -0.63073,0.42048 -0.22935,0.11468 -0.4587,0.19113 -0.70717,0.24847 -0.24847,0.0573 -0.49694,0.0956 -0.80274,0.0956 -0.22936,0 -0.4396,-0.0382 -0.63073,-0.0956 -0.19113,-0.0573 -0.34403,-0.13379 -0.49693,-0.24847 -0.15291,-0.11468 -0.26758,-0.26758 -0.34404,-0.45871 -0.0765,-0.19113 -0.13379,-0.38226 -0.13379,-0.64984 0,-0.26758 0.0765,-0.49693 0.22936,-0.72629 0.1529,-0.22935 0.42048,-0.42048 0.76451,-0.57338 0.34404,-0.15291 0.80275,-0.30581 1.33791,-0.40137 0.53516,-0.0956 1.20411,-0.13379 1.98774,-0.13379 z"
         style="font-style:normal;font-variant:normal;font-weight:normal;font-stretch:normal;font-family:Aleo;-inkscape-font-specification:Aleo;fill:#eeb14e;fill-opacity:1;stroke-width:0.47782212"
         id="path867" />
      <path
         d="m 397.28737,219.3814 c -0.53516,0 -1.01298,0.0573 -1.47169,0.21024 -0.45871,0.1529 -0.86008,0.36314 -1.185,0.63072 -0.32492,0.26758 -0.57339,0.5925 -0.76452,0.97476 -0.19113,0.38226 -0.26758,0.82186 -0.26758,1.28056 0,0.5925 0.13379,1.10855 0.40137,1.54815 0.26758,0.43959 0.64984,0.80274 1.12766,1.07032 -0.19113,0.11468 -0.38226,0.21024 -0.53516,0.34403 -0.1529,0.13379 -0.28669,0.26758 -0.40137,0.42049 -0.11468,0.1529 -0.19113,0.3058 -0.22935,0.4587 -0.0382,0.15291 -0.0765,0.26759 -0.0765,0.42049 0,0.34403 0.0956,0.64984 0.24847,0.86008 0.15291,0.21024 0.38226,0.40137 0.64984,0.51605 -0.53516,0.19112 -0.95564,0.45871 -1.26145,0.80274 -0.30581,0.34403 -0.45871,0.7454 -0.45871,1.22322 0,0.34403 0.0956,0.64984 0.26758,0.95565 0.17202,0.3058 0.4396,0.5925 0.78363,0.82185 0.34403,0.22935 0.78363,0.42048 1.31879,0.57339 0.53516,0.1529 1.16588,0.21024 1.87306,0.21024 0.70718,0 1.3379,-0.0764 1.91129,-0.26758 0.57339,-0.19113 1.03209,-0.42049 1.41435,-0.72629 0.38226,-0.30581 0.70718,-0.64984 0.91742,-1.0321 0.21024,-0.38226 0.30581,-0.80274 0.30581,-1.22322 0,-0.45871 -0.0764,-0.80274 -0.26758,-1.07032 -0.19113,-0.26758 -0.4396,-0.51605 -0.74541,-0.66895 -0.3058,-0.15291 -0.66895,-0.26759 -1.0512,-0.34404 -0.38226,-0.0764 -0.78363,-0.0956 -1.185,-0.13379 -0.40137,-0.0382 -0.80274,-0.0765 -1.185,-0.0765 -0.38226,0 -0.7454,-0.0382 -1.05121,-0.0764 -0.30581,-0.0382 -0.55427,-0.13379 -0.7454,-0.24847 -0.19113,-0.11467 -0.26758,-0.28669 -0.26758,-0.51605 0,-0.1529 0.0382,-0.26758 0.1529,-0.42048 0.11468,-0.1529 0.26758,-0.3058 0.45871,-0.42048 0.40137,0.11468 0.82185,0.17201 1.28056,0.17201 0.53516,0 1.01299,-0.0573 1.45258,-0.21024 0.4396,-0.1529 0.82186,-0.38226 1.14677,-0.64984 0.32492,-0.26758 0.55428,-0.5925 0.74541,-0.97475 0.19113,-0.38226 0.26758,-0.82186 0.26758,-1.28057 0,-0.49693 -0.0764,-0.95564 -0.30581,-1.37612 l 1.08944,-0.15291 c 0.26758,-0.0573 0.40137,-0.19113 0.40137,-0.40137 v -0.63072 h -2.63758 c -0.30581,-0.19113 -0.63073,-0.32492 -0.99387,-0.42049 -0.36315,-0.0956 -0.7454,-0.13379 -1.16589,-0.13379 z m 2.98161,10.41652 c 0,0.26758 -0.0765,0.47782 -0.21024,0.68806 -0.13379,0.21025 -0.32492,0.38226 -0.57339,0.53516 -0.24847,0.15291 -0.55427,0.2867 -0.91742,0.36315 -0.36314,0.0764 -0.76451,0.13379 -1.22322,0.13379 -0.45871,0 -0.8792,-0.0382 -1.22323,-0.11468 -0.34403,-0.0764 -0.63072,-0.19113 -0.86008,-0.32492 -0.22935,-0.13379 -0.40137,-0.28669 -0.51605,-0.47782 -0.11467,-0.19113 -0.17201,-0.38226 -0.17201,-0.61161 0,-0.34403 0.11468,-0.64984 0.34403,-0.89831 0.22935,-0.24846 0.53516,-0.45871 0.89831,-0.63072 0.3058,0.0382 0.63072,0.0956 0.97475,0.11468 0.34403,0.0191 0.66895,0.0191 1.01299,0.0382 0.34403,0.0191 0.64983,0.0573 0.95564,0.0956 0.30581,0.0382 0.55427,0.0956 0.78363,0.17201 0.22935,0.0764 0.42048,0.19113 0.55427,0.34403 0.13379,0.15291 0.19113,0.34404 0.19113,0.57339 z m -3.00072,-5.27516 c -0.34404,0 -0.61162,-0.0382 -0.8792,-0.13379 -0.26758,-0.0956 -0.47782,-0.22935 -0.66895,-0.40137 -0.19113,-0.17201 -0.3058,-0.38225 -0.40137,-0.61161 -0.0956,-0.22935 -0.1529,-0.49693 -0.1529,-0.78363 0,-0.5925 0.17201,-1.07032 0.53516,-1.41435 0.36314,-0.34403 0.87919,-0.51605 1.56726,-0.51605 0.68806,0 1.20411,0.17202 1.56725,0.51605 0.36315,0.34403 0.55428,0.82185 0.55428,1.41435 0,0.2867 -0.0573,0.55428 -0.1338,0.78363 -0.0765,0.22936 -0.21024,0.45871 -0.40137,0.63073 -0.19112,0.17201 -0.40137,0.3058 -0.66895,0.40137 -0.26758,0.0956 -0.57338,0.1529 -0.91741,0.1529 z"
         style="font-style:normal;font-variant:normal;font-weight:normal;font-stretch:normal;font-family:Aleo;-inkscape-font-specification:Aleo;fill:#eeb14e;fill-opacity:1;stroke-width:0.47782212"
         id="path869" />
      <path
         d="m 411.59934,228.03953 c -0.11468,-0.0382 -0.68807,-0.1529 -0.95565,-0.21024 v -4.83556 c 0,-0.53516 -0.0573,-1.03209 -0.21024,-1.4908 -0.1529,-0.45871 -0.36314,-0.84097 -0.64984,-1.14678 -0.28669,-0.3058 -0.63072,-0.53516 -1.0512,-0.72628 -0.42049,-0.19113 -0.91742,-0.26759 -1.45258,-0.26759 -0.76452,0 -1.45258,0.11468 -2.0642,0.38226 -0.61161,0.26758 -1.18499,0.63073 -1.72016,1.14678 l 0.30581,0.53516 c 0.0382,0.0764 0.11468,0.17201 0.19113,0.22935 0.0764,0.0573 0.19113,0.0764 0.30581,0.0764 0.1529,0 0.28669,-0.0382 0.43959,-0.1529 0.15291,-0.11468 0.34403,-0.21024 0.55428,-0.34403 0.21024,-0.13379 0.43959,-0.22936 0.72629,-0.34403 0.28669,-0.11468 0.63072,-0.17202 1.0512,-0.17202 0.63073,0 1.10855,0.21024 1.43347,0.5925 0.32492,0.38226 0.49694,0.95564 0.49694,1.72016 v 0.7454 c -1.10855,0 -2.02597,0.0765 -2.79049,0.24847 -0.76451,0.17201 -1.37612,0.42048 -1.83483,0.68806 -0.45871,0.26758 -0.82186,0.61161 -1.0321,0.95565 -0.21024,0.34403 -0.3058,0.72629 -0.3058,1.10854 0,0.4396 0.0573,0.82186 0.21024,1.14678 0.1529,0.32492 0.34403,0.5925 0.57338,0.80274 0.22936,0.21024 0.53516,0.34403 0.86008,0.45871 0.32492,0.11467 0.64984,0.17201 1.0321,0.17201 0.38226,0 0.72629,-0.0191 1.0321,-0.0956 0.3058,-0.0764 0.57338,-0.17202 0.84096,-0.28669 0.26758,-0.11468 0.53516,-0.26758 0.76452,-0.45871 0.22935,-0.19113 0.49693,-0.40137 0.76451,-0.63073 l 0.19113,0.91742 c 0.0382,0.1529 0.0765,0.26758 0.19113,0.30581 0.11468,0.0382 0.24847,0.0764 0.40137,0.0764 h 0.61161 0.13379 1.24234 v -0.82186 c 0,-0.17201 -0.11468,-0.32492 -0.28669,-0.36314 z m -2.63758,-1.18499 c -0.19113,0.19112 -0.38226,0.38225 -0.57339,0.53516 -0.19113,0.1529 -0.40137,0.3058 -0.63072,0.42048 -0.22936,0.11468 -0.45871,0.19113 -0.70718,0.24847 -0.24847,0.0573 -0.49693,0.0956 -0.80274,0.0956 -0.22935,0 -0.4396,-0.0382 -0.63073,-0.0956 -0.19112,-0.0573 -0.34403,-0.13379 -0.49693,-0.24847 -0.1529,-0.11468 -0.26758,-0.26758 -0.34403,-0.45871 -0.0765,-0.19113 -0.13379,-0.38226 -0.13379,-0.64984 0,-0.26758 0.0765,-0.49693 0.22935,-0.72629 0.15291,-0.22935 0.42049,-0.42048 0.76452,-0.57338 0.34403,-0.15291 0.80274,-0.30581 1.3379,-0.40137 0.53516,-0.0956 1.20411,-0.13379 1.98774,-0.13379 z"
         style="font-style:normal;font-variant:normal;font-weight:normal;font-stretch:normal;font-family:Aleo;-inkscape-font-specification:Aleo;fill:#eeb14e;fill-opacity:1;stroke-width:0.47782212"
         id="path871" />
      <path
         d="m 425.52337,228.03953 c -0.11468,-0.0382 -0.68806,-0.1529 -0.95564,-0.21024 v -4.83556 c 0,-0.53516 -0.0573,-1.03209 -0.21024,-1.4908 -0.15291,-0.45871 -0.36315,-0.84097 -0.64984,-1.14678 -0.2867,-0.3058 -0.63073,-0.53516 -1.05121,-0.72628 -0.42048,-0.19113 -0.91742,-0.26759 -1.45258,-0.26759 -0.76452,0 -1.45258,0.11468 -2.06419,0.38226 -0.61161,0.26758 -1.185,0.63073 -1.72016,1.14678 l 0.30581,0.53516 c 0.0382,0.0764 0.11467,0.17201 0.19112,0.22935 0.0765,0.0573 0.19113,0.0764 0.30581,0.0764 0.1529,0 0.28669,-0.0382 0.4396,-0.1529 0.1529,-0.11468 0.34403,-0.21024 0.55427,-0.34403 0.21024,-0.13379 0.4396,-0.22936 0.72629,-0.34403 0.28669,-0.11468 0.63072,-0.17202 1.05121,-0.17202 0.63072,0 1.10855,0.21024 1.43346,0.5925 0.32492,0.38226 0.49694,0.95564 0.49694,1.72016 v 0.7454 c -1.10855,0 -2.02597,0.0765 -2.79048,0.24847 -0.76452,0.17201 -1.37613,0.42048 -1.83484,0.68806 -0.45871,0.26758 -0.82185,0.61161 -1.03209,0.95565 -0.21025,0.34403 -0.30581,0.72629 -0.30581,1.10854 0,0.4396 0.0573,0.82186 0.21024,1.14678 0.1529,0.32492 0.34403,0.5925 0.57339,0.80274 0.22935,0.21024 0.53516,0.34403 0.86008,0.45871 0.32492,0.11467 0.64984,0.17201 1.03209,0.17201 0.38226,0 0.72629,-0.0191 1.0321,-0.0956 0.30581,-0.0764 0.57339,-0.17202 0.84097,-0.28669 0.26758,-0.11468 0.53516,-0.26758 0.76451,-0.45871 0.22936,-0.19113 0.49694,-0.40137 0.76452,-0.63073 l 0.19113,0.91742 c 0.0382,0.1529 0.0765,0.26758 0.19112,0.30581 0.11468,0.0382 0.24847,0.0764 0.40138,0.0764 h 0.61161 0.13379 1.24234 v -0.82186 c 0,-0.17201 -0.11468,-0.32492 -0.2867,-0.36314 z m -2.63758,-1.18499 c -0.19112,0.19112 -0.38225,0.38225 -0.57338,0.53516 -0.19113,0.1529 -0.40137,0.3058 -0.63073,0.42048 -0.22935,0.11468 -0.45871,0.19113 -0.70717,0.24847 -0.24847,0.0573 -0.49694,0.0956 -0.80275,0.0956 -0.22935,0 -0.43959,-0.0382 -0.63072,-0.0956 -0.19113,-0.0573 -0.34403,-0.13379 -0.49694,-0.24847 -0.1529,-0.11468 -0.26758,-0.26758 -0.34403,-0.45871 -0.0764,-0.19113 -0.13379,-0.38226 -0.13379,-0.64984 0,-0.26758 0.0764,-0.49693 0.22936,-0.72629 0.1529,-0.22935 0.42048,-0.42048 0.76451,-0.57338 0.34403,-0.15291 0.80274,-0.30581 1.3379,-0.40137 0.53516,-0.0956 1.20412,-0.13379 1.98774,-0.13379 z"
         style="font-style:normal;font-variant:normal;font-weight:normal;font-stretch:normal;font-family:Aleo;-inkscape-font-specification:Aleo;fill:#eeb14e;fill-opacity:1;stroke-width:0.47782212"
         id="path873" />
      <path
         d="m 433.60185,227.79107 v 3.30653 c -0.72629,0.11467 -1.16589,0.19112 -1.31879,0.22935 -0.1529,0.0382 -0.24847,0.1529 -0.24847,0.34403 v 0.82186 h 4.79734 v -0.82186 c 0,-0.19113 -0.11468,-0.3058 -0.30581,-0.34403 -0.11468,-0.0382 -0.49694,-0.11468 -1.22322,-0.22935 v -11.18104 l -0.68807,-0.13379 c -1.37613,-0.26758 -2.56113,-0.40137 -3.59322,-0.40137 -1.24234,0 -2.23621,0.42048 -3.01984,1.29967 -0.82185,0.91742 -1.24233,2.12153 -1.24233,3.68879 v 0.0382 c 0,1.56725 0.34403,2.79048 0.99387,3.66967 0.64983,0.84097 1.52903,1.26145 2.6758,1.26145 1.22322,0 2.27443,-0.51605 3.15363,-1.54814 z m -2.61847,0.19113 c -1.6437,0 -2.48467,-1.20412 -2.48467,-3.57411 v -0.49694 c 0,-0.3058 0.0764,-0.70718 0.19113,-1.12766 0.38225,-1.3379 1.24233,-2.04508 2.50379,-2.0833 h 0.11467 c 0.68807,0 1.43347,0.0956 2.27444,0.3058 v 5.50451 c -0.72629,0.97476 -1.60549,1.4717 -2.59936,1.4717 z"
         style="font-style:normal;font-variant:normal;font-weight:normal;font-stretch:normal;font-family:Aleo;-inkscape-font-specification:Aleo;fill:#eeb14e;fill-opacity:1;stroke-width:0.47782212"
         id="path875" />
      <path
         d="m 441.93805,228.02042 c -0.68806,0 -1.185,-0.19113 -1.52903,-0.5925 -0.34403,-0.40137 -0.49693,-0.99387 -0.49693,-1.72016 v -6.15435 h -3.09629 v 0.80274 c 0,0.19113 0.11468,0.32492 0.3058,0.36315 0.11468,0.0382 0.45871,0.11468 1.07033,0.22935 v 4.77823 c 0,1.14677 0.3058,2.00685 0.84096,2.65669 0.57339,0.66895 1.37613,1.01298 2.40823,1.01298 1.22322,0 2.29354,-0.51605 3.21096,-1.54814 l 0.13379,1.03209 c 0.0765,0.22936 0.22936,0.36315 0.45871,0.36315 h 2.38911 v -0.82186 c 0,-0.19113 -0.0956,-0.3058 -0.28669,-0.34403 -0.11468,-0.0382 -0.47782,-0.11468 -1.08944,-0.22935 v -8.295 h -1.70104 -1.37613 v 0.82186 c 0,0.19113 0.0956,0.32492 0.28669,0.36314 0.61161,0.11468 0.97476,0.19113 1.08944,0.22936 v 5.73386 c -0.78363,0.8792 -1.66282,1.3379 -2.61847,1.3379 z"
         style="font-style:normal;font-variant:normal;font-weight:normal;font-stretch:normal;font-family:Aleo;-inkscape-font-specification:Aleo;fill:#eeb14e;fill-opacity:1;stroke-width:0.47782212"
         id="path877" />
      <path
         d="m 450.10821,217.35543 c 0.11468,0.11468 0.22935,0.19113 0.38226,0.26758 0.1529,0.0764 0.3058,0.0956 0.45871,0.0956 0.1529,0 0.3058,-0.0191 0.4587,-0.0956 0.15291,-0.0764 0.26758,-0.1529 0.38226,-0.26758 0.11468,-0.11468 0.19113,-0.22935 0.26758,-0.38226 0.0764,-0.1529 0.11468,-0.3058 0.11468,-0.45871 0,-0.1529 -0.0382,-0.32491 -0.11468,-0.47782 -0.0765,-0.1529 -0.1529,-0.28669 -0.26758,-0.40137 -0.11468,-0.11468 -0.22935,-0.19113 -0.38226,-0.26758 -0.1529,-0.0765 -0.3058,-0.0956 -0.4587,-0.0956 -0.15291,0 -0.30581,0.0191 -0.45871,0.0956 -0.15291,0.0764 -0.26758,0.1529 -0.38226,0.26758 -0.11468,0.11468 -0.19113,0.24847 -0.26758,0.40137 -0.0764,0.15291 -0.0956,0.32492 -0.0956,0.47782 0,0.15291 0.0191,0.30581 0.0956,0.45871 0.0765,0.15291 0.1529,0.26758 0.26758,0.38226 z m 2.77137,10.6841 c -0.17202,-0.0382 -1.08944,-0.21024 -1.08944,-0.21024 v -8.27588 h -3.07717 v 0.80274 c 0,0.17202 0.11467,0.32492 0.28669,0.36315 0.17202,0.0382 1.10855,0.21024 1.10855,0.21024 v 6.89975 c 0,0 -0.93653,0.17202 -1.10855,0.21024 -0.17202,0.0382 -0.28669,0.19113 -0.28669,0.36315 v 0.82185 h 4.4533 v -0.82185 c 0,-0.17202 -0.11468,-0.32492 -0.28669,-0.36315 z"
         style="font-style:normal;font-variant:normal;font-weight:normal;font-stretch:normal;font-family:Aleo;-inkscape-font-specification:Aleo;fill:#eeb14e;fill-opacity:1;stroke-width:0.47782212"
         id="path879" />
    </g>
    <path
       sodipodi:nodetypes="ccccc"
       inkscape:connector-curvature="0"
       id="path3751"
       d="m 115.73965,55.132797 0.002,141.914713 3e-4,28.28959 C 184.35164,194.92486 186.67191,108.2578 181.92515,71.925139 155.45994,67.325452 143.2579,64.436362 115.73988,55.132797 Z"
       style="fill:url(#linearGradient3759);fill-opacity:1;stroke:none;stroke-width:0.23439308px;stroke-linecap:butt;stroke-linejoin:miter;stroke-opacity:1" />
    <path
       inkscape:connector-curvature="0"
       d="m 129.26675,121.27579 a 1.5449212,1.5449212 0 0 1 -1.54492,1.54492 1.5449212,1.5449212 0 0 1 -1.54493,-1.54492 1.5449212,1.5449212 0 0 1 1.54493,-1.54493 1.5449212,1.5449212 0 0 1 1.54492,1.54493 z m -38.641287,0.12396 a 1.5449212,1.5449212 0 0 1 -1.544923,1.54492 1.5449212,1.5449212 0 0 1 -1.544924,-1.54492 1.5449212,1.5449212 0 0 1 1.544924,-1.54493 1.5449212,1.5449212 0 0 1 1.544923,1.54493 z m 56.953477,17.32051 -14.66614,-14.66631 c -0.60448,-0.60432 -1.5847,-0.60447 -2.18948,0 -0.60448,0.60448 -0.60448,1.58469 0,2.18949 l 13.57156,13.5714 -7.93492,7.93477 c -0.24312,0.24296 -0.63851,0.24296 -0.88133,0 L 119.80967,132.0808 c -0.24312,-0.24298 -0.24312,-0.63837 0,-0.88149 l 5.32528,-5.32559 c 0.60447,-0.60447 0.60447,-1.58469 0,-2.18932 -0.60463,-0.60448 -1.58454,-0.60448 -2.18947,0 l -5.32529,5.32528 c -1.10309,1.10325 -1.36463,2.7322 -0.78926,4.08739 l -1.80104,1.80105 h -6.94494 -0.54738 -5.09994 l -2.27213,-2.27211 c 0.0872,-0.3185 0.1334,-0.65013 0.1334,-0.9892 0,-0.99353 -0.387041,-1.92764 -1.089479,-2.63007 l -5.181357,-5.18136 c -0.60463,-0.60448 -1.58454,-0.60448 -2.189479,0 -0.604473,0.60447 -0.604473,1.5847 0,2.18948 l 5.181514,5.18135 c 0.158783,0.15879 0.182612,0.34433 0.182612,0.4406 0,0.0963 -0.02369,0.28181 -0.182764,0.44074 l -0.431148,0.43114 -15.242618,15.2389 c -0.0046,0.005 -0.0091,0.0103 -0.01392,0.0153 -0.154444,0.14284 -0.329318,0.16605 -0.422019,0.16605 -0.09641,0 -0.281964,-0.0237 -0.440742,-0.18245 l -7.934453,-7.93478 13.754025,-13.75386 c 0.604473,-0.60447 0.604473,-1.58469 0,-2.18932 -0.604477,-0.60462 -1.584386,-0.60447 -2.189478,0 L 69.25114,138.71717 c -0.604472,0.60448 -0.604472,1.58469 0,2.18933 l 9.029349,9.02949 c 0.725336,0.72519 1.677703,1.08762 2.630063,1.08762 0.437337,0 0.87375,-0.0802 1.28896,-0.23321 l 5.082625,5.08262 c -0.394627,0.74035 -0.619025,1.58423 -0.619025,2.47995 0,2.91761 2.373636,5.29124 5.291236,5.29124 0.0065,0 0.01298,-4.7e-4 0.01948,-4.7e-4 0,3.2e-4 0,5.9e-4 0,9.4e-4 0,2.9111 2.362956,5.2801 5.271584,5.29077 0,0.003 -1.58e-4,0.005 -1.58e-4,0.007 0,2.9176 2.373636,5.29124 5.291236,5.29124 0.89758,0 1.74333,-0.22533 2.4846,-0.62134 l 1.8922,1.89218 c 0.88704,0.88707 2.06659,1.37562 3.32103,1.37562 1.2546,0 2.43415,-0.48855 3.32105,-1.37562 0.83986,-0.83985 1.32254,-1.94185 1.37144,-3.12156 1.14411,-0.057 2.2715,-0.52121 3.14323,-1.39311 0.92111,-0.92109 1.41849,-2.14582 1.4007,-3.44825 0,-0.003 -1.6e-4,-0.006 -1.6e-4,-0.009 1.34683,-0.0836 2.58596,-0.67381 3.50212,-1.67212 0.92094,-1.00313 1.3767,-2.26811 1.37267,-3.52998 1.2953,-0.0373 2.50719,-0.55913 3.42722,-1.4793 0.95978,-0.95964 1.4861,-2.23576 1.48146,-3.59311 -0.003,-0.79915 -0.19019,-1.56798 -0.5401,-2.26067 l 5.07752,-4.64264 c 0.63682,0.44507 1.3815,0.67086 2.12774,0.67086 0.95235,0 1.90487,-0.36261 2.63006,-1.08746 l 9.02935,-9.02951 c 0.60477,-0.60432 0.60477,-1.58454 3e-4,-2.18902 z m -55.624439,21.82806 c -1.210496,0 -2.195207,-0.9847 -2.195207,-2.19519 0,-1.21034 0.984711,-2.19505 2.195207,-2.19505 1.210494,0 2.195199,0.98471 2.195199,2.19505 -1.52e-4,1.21049 -0.984862,2.19519 -2.195199,2.19519 z m 6.945565,4.55616 c -0.06298,0.0597 -0.12442,0.12086 -0.184465,0.18354 -0.387352,0.34231 -0.894333,0.55201 -1.450521,0.55201 -1.210343,0 -2.195049,-0.98471 -2.195049,-2.19521 0,-1.21049 0.984554,-2.19519 2.195049,-2.19519 1.210494,0 2.195199,0.9847 2.195199,2.19519 -1.52e-4,0.56083 -0.213249,1.07138 -0.560213,1.45966 z m 5.209674,5.36598 c -0.008,0.007 -0.0147,0.0127 -0.0216,0.0196 -0.008,0.008 -0.0142,0.0161 -0.0215,0.0239 -0.39571,0.38549 -0.93518,0.62398 -1.52977,0.62398 -1.21064,-3.1e-4 -2.19535,-0.98502 -2.19535,-2.19536 0,-0.56067 0.21294,-1.07121 0.56006,-1.4595 0.063,-0.0597 0.12443,-0.12086 0.18447,-0.18354 0.3872,-0.34232 0.89433,-0.55185 1.45052,-0.55185 1.21034,0 2.1952,0.98471 2.1952,2.1952 0,0.59364 -0.23771,1.13204 -0.62196,1.52759 z m 21.47385,-11.80751 c -0.37064,0.37048 -0.86307,0.57445 -1.38708,0.57445 -0.524,0 -1.01643,-0.20397 -1.38707,-0.57429 l -3.21612,-3.21629 c -0.60447,-0.60447 -1.58438,-0.60447 -2.18948,0 -0.60447,0.60447 -0.60447,1.58469 0,2.18932 l 3.21598,3.21612 c 1.5e-4,0 3e-4,1.6e-4 3e-4,1.6e-4 l 0.01,0.01 c 0.79807,0.79792 0.82531,2.07403 0.0621,2.90536 -0.38348,0.41785 -0.90671,0.65881 -1.47358,0.67862 -0.56563,0.0209 -1.10572,-0.18385 -1.51738,-0.57369 l -3.0968,-2.93137 c -0.62103,-0.58776 -1.60079,-0.56099 -2.18855,0.0601 -0.58776,0.62088 -0.56099,1.60064 0.0599,2.18856 l 3.37166,3.19182 c 0.3338,0.31602 0.52106,0.74313 0.52741,1.20276 0.007,0.45963 -0.16915,0.8917 -0.49414,1.21668 -0.65787,0.65818 -1.72908,0.65802 -2.38695,0 l -1.56319,-1.56318 c -0.60462,-0.60447 -1.58453,-0.60447 -2.18946,0 -0.30224,0.3024 -0.45344,0.69841 -0.45344,1.09459 0,0.39617 0.1512,0.7925 0.45344,1.09458 l 1.62493,1.62492 c 0.30238,0.3024 0.4689,0.7043 0.4689,1.13173 0,0.42743 -0.16652,0.8295 -0.4689,1.13172 -0.30239,0.30239 -0.7043,0.46876 -1.13173,0.46876 -0.42759,0 -0.82934,-0.16652 -1.13172,-0.46891 l -1.89343,-1.89342 c 0.39431,-0.74004 0.61855,-1.58362 0.61855,-2.47902 0,-2.91111 -2.36312,-5.28011 -5.27173,-5.29078 0,-0.003 1.4e-4,-0.005 1.4e-4,-0.007 0,-2.9176 -2.37363,-5.29124 -5.291234,-5.29124 -0.0065,0 -0.01286,4.7e-4 -0.01936,4.7e-4 0,-3.2e-4 0,-5.8e-4 0,-9.3e-4 0,-2.9176 -2.373635,-5.29109 -5.291236,-5.29109 -0.897268,0 -1.742696,0.22518 -2.483668,0.62088 l -4.838417,-4.83826 13.686552,-13.68671 2.383073,2.38324 c 0.29047,0.29032 0.68417,0.45343 1.09458,0.45343 h 2.00377 l -6.110661,6.11065 c -0.934257,0.93427 -1.44866,2.17663 -1.44866,3.49794 0,1.3213 0.514403,2.56352 1.44866,3.49778 0.934257,0.93441 2.176636,1.44882 3.497931,1.44882 1.3213,0 2.56367,-0.51457 3.49793,-1.44882 l 5.18291,-5.18306 5.6741,0.0622 10.032,9.89923 c 0.37483,0.36987 0.5822,0.86353 0.58374,1.39001 0.003,0.52586 -0.20196,1.02077 -0.57429,1.39327 z m 1.11872,-6.02045 -9.43047,-9.30558 c -1.5e-4,-1.5e-4 -3.1e-4,-3.1e-4 -4.7e-4,-4.7e-4 l -0.0136,-0.0135 c -0.34821,-0.34373 -0.81819,-0.48765 -1.26915,-0.43456 l -6.73789,-0.0739 c -0.41783,-0.003 -0.8171,0.15893 -1.11161,0.45327 l -5.64346,5.64362 c -0.34958,0.34959 -0.81432,0.54195 -1.30845,0.54195 -0.49414,0 -0.95887,-0.19236 -1.308458,-0.54195 -0.349596,-0.34944 -0.541952,-0.81416 -0.541952,-1.30846 0,-0.49429 0.192356,-0.95901 0.541952,-1.3086 l 8.299988,-8.3 h 7.49263 c 0.41056,0 0.80427,-0.1631 1.09458,-0.45343 l 2.06258,-2.06257 12.72661,12.72661 z m 26.76451,-7.26302 a 45.05179,45.05179 0 0 1 -45.0518,45.05179 45.05179,45.05179 0 0 1 -45.051786,-45.05179 45.05179,45.05179 0 0 1 45.051786,-45.05178 45.05179,45.05179 0 0 1 45.0518,45.05178 z"
       style="fill:#550000;fill-opacity:1;stroke-width:0.1547552"
       id="circle45" />
  </g>
</svg>
